<?xml version="1.0" encoding="UTF-8"?><svg id="Capa_2" xmlns="http://www.w3.org/2000/svg" viewBox="0 0 49.92 49.96"><defs><style>.cls-1{fill:#fff;}.cls-2{fill:#5b595f;}.cls-3{fill:#302a48;}.cls-4{fill:#7a777d;}.cls-5{fill:#9a979b;}.cls-6{fill:#5c5a60;}.cls-7{fill:#3a383e;}.cls-8{fill:#5b595e;}.cls-9{fill:#99969b;}</style></defs><g id="Capa_1-2"><g><path class="cls-1" d="m22.9,0h3.9c.98.12,1.96.13,2.93.33,1.77.36,3.5.85,5.16,1.57,2.34,1.02,4.48,2.36,6.4,4.03,2.22,1.93,4.08,4.17,5.54,6.73,1.25,2.21,2.1,4.57,2.65,7.03.24,1.06.38,2.14.42,3.23.05,1.28.04,2.56,0,3.84-.05,1.7-.36,3.35-.81,4.98-.86,3.07-2.27,5.87-4.2,8.39-2.34,3.05-5.22,5.46-8.64,7.2-2.7,1.37-5.56,2.3-8.59,2.51-3.26.22-6.51.21-9.69-.79-3.42-1.08-6.53-2.68-9.25-5.04-2.43-2.1-4.43-4.54-5.93-7.39-1.32-2.51-2.22-5.15-2.64-7.95-.08-.56-.03-1.13-.13-1.68v-4.09c.11-.77.1-1.54.23-2.31.33-2.03.99-3.96,1.8-5.84,1-2.3,2.34-4.38,3.99-6.25,2-2.27,4.3-4.17,6.98-5.6C15.58,1.52,18.28.56,21.17.14c.57-.08,1.16-.03,1.73-.14Z"/><path class="cls-3" d="m21.03,25.83c-.83,0-1.65-.02-2.48,0-.28,0-.35-.08-.34-.35.02-1.57.01-3.14.01-4.71.65-.13,1.3-.03,1.95-.06.27-.01.54,0,.82,0,.19-.13.09-.32.09-.49.03-1.12-.03-2.25.03-3.37.13-2.56,1.58-4.65,4.09-5.28.39-.1.79-.12,1.18-.18,1.72-.04,3.44-.09,5.16.02h0c.11.39.04.79.05,1.19.01,1.07,0,2.13,0,3.2,0,.16.04.32-.05.47h0c-.61.12-1.22.02-1.83.05-.56.03-1.13-.05-1.69.04-.62.16-.95.53-.95,1.15-.01,1.05,0,2.09,0,3.14.2.11.41.05.61.05,1.16,0,2.32,0,3.48,0,.15,0,.32-.06.46.06-.15.44-.11.92-.17,1.37-.15,1.12-.22,2.26-.31,3.39-.02.28-.16.3-.38.3-1.07,0-2.14.02-3.21-.01-.39-.01-.51.07-.51.49.02,4.46.01,8.93.01,13.39,0,.18,0,.36,0,.54-.08.08-.18.06-.27.06-1.81,0-3.62,0-5.43,0-.08,0-.16,0-.24-.04-.08-.17-.04-.35-.04-.53,0-4.46,0-8.92,0-13.37,0-.17.06-.36-.06-.52Z"/><path class="cls-5" d="m21.03,25.83c.21.14.1.35.1.53,0,4.43,0,8.86,0,13.29,0,.19,0,.39.01.58-.03.05-.06.05-.09,0,0-2.37-.01-4.73-.02-7.1,0-2.43,0-4.86-.01-7.29Z"/><path class="cls-8" d="m21.06,40.22s.06,0,.09,0c1.97,0,3.95,0,5.92,0-.07.16-.22.11-.34.11-1.78,0-3.55,0-5.33,0-.12,0-.26.03-.34-.11Z"/><path class="cls-4" d="m31.56,11.41c-1.72,0-3.44-.02-5.16-.02.18-.11.37-.09.56-.09,1.42,0,2.84,0,4.25.01.12,0,.26-.05.34.1Z"/><path class="cls-7" d="m31.56,16.27c0-1.62,0-3.25,0-4.87.13.09.1.23.1.35,0,1.39,0,2.78,0,4.16,0,.12.03.26-.1.35Z"/><path class="cls-2" d="m31.65,20.77c-1.38,0-2.75,0-4.13-.02-.14,0-.32.11-.42-.1,1.36,0,2.71,0,4.07.01.16,0,.36-.09.48.11Z"/><path class="cls-9" d="m21.12,16.84c0,1.23.01,2.46.02,3.69,0,.08-.02.16-.11.2-.03-.02-.04-.04-.03-.06,0-.02.02-.03.02-.03,0-1.06,0-2.13.02-3.19,0-.2-.04-.42.08-.61Z"/><path class="cls-6" d="m28.05,16.36c.2-.16.44-.08.65-.08.95-.01,1.91,0,2.86-.01-.06.13-.19.1-.29.1-1.07,0-2.15,0-3.22,0Z"/><path class="cls-2" d="m21.03,20.64s0,.06,0,.09c-.94.01-1.87.02-2.81.03.11-.18.29-.1.44-.11.79-.01,1.58-.01,2.37-.02Z"/></g></g></svg>