<?xml version="1.0" encoding="UTF-8"?><svg id="Capa_2" xmlns="http://www.w3.org/2000/svg" viewBox="0 0 49.96 49.94"><defs><style>.cls-1{fill:#cbc9cc;}.cls-2{fill:#d9d8db;}.cls-3{fill:#fff;}.cls-4{fill:#302a48;}.cls-5{fill:#7d7b80;}.cls-6{fill:#828085;}.cls-7{fill:#7d7a80;}.cls-8{fill:#8e8b90;}.cls-9{fill:#504d53;}.cls-10{fill:#dbd9dc;}.cls-11{fill:#827f85;}.cls-12{fill:#747277;}.cls-13{fill:#939095;}.cls-14{fill:#cfcdd0;}.cls-15{fill:#d3d1d4;}.cls-16{fill:#747177;}.cls-17{fill:#535056;}.cls-18{fill:#838085;}.cls-19{fill:#4b494f;}.cls-20{fill:#767379;}.cls-21{fill:#757278;}.cls-22{fill:#4b494e;}</style></defs><g id="Capa_1-2"><g><path class="cls-3" d="m22.97,0h3.9c.98.11,1.96.13,2.93.32,3.03.59,5.85,1.69,8.47,3.32,1.59.99,3.07,2.14,4.38,3.46,2.19,2.2,3.96,4.7,5.25,7.55.89,1.97,1.45,4.02,1.85,6.13.14.73.09,1.48.21,2.21v3.99c-.15.91-.13,1.83-.33,2.74-.37,1.72-.82,3.4-1.51,5.02-.99,2.32-2.32,4.42-3.93,6.35-1.9,2.28-4.17,4.12-6.73,5.62-1.95,1.14-4.02,1.96-6.2,2.53-1.57.41-3.18.66-4.8.67-1.94.01-3.89.1-5.82-.26-3.72-.68-7.11-2.11-10.18-4.31-3.46-2.48-6.12-5.64-8-9.45-1.25-2.52-2.07-5.19-2.34-7.99-.16-1.71-.11-3.43-.04-5.15.15-3.29,1.14-6.34,2.61-9.25,1-1.98,2.28-3.77,3.76-5.42,2.16-2.41,4.73-4.29,7.62-5.72,2.27-1.13,4.66-1.88,7.18-2.24.58-.08,1.16-.03,1.73-.13Z"/><path class="cls-4" d="m19.85,39.18c-1.08.03-2.17-.03-3.2-.33-2.61-.75-4.48-2.35-5.36-5-.39-1.18-.52-2.41-.51-3.65-.07-.39-.01-.79-.03-1.18-.02-.97.04-1.95-.03-2.92,0-.78,0-1.56,0-2.34.08-.97.01-1.94.03-2.92.02-.39-.04-.79.03-1.19,0-1.37.14-2.72.64-4,1.06-2.72,3.1-4.23,5.92-4.75.82-.15,1.66-.22,2.5-.21.36-.07.73-.02,1.09-.03,1.1-.02,2.2.04,3.31-.04.97,0,1.95,0,2.92,0,.65.07,1.3.01,1.96.03.36.02.72-.04,1.08.03,1.45.04,2.89.15,4.24.71,2.34.96,3.81,2.67,4.43,5.14.27,1.07.33,2.14.39,3.23.07.39.01.79.03,1.18.02.91-.04,1.82.03,2.73,0,.88,0,1.75,0,2.63-.08.91-.01,1.82-.03,2.72-.02.39.04.79-.03,1.18-.04,1.41-.15,2.82-.7,4.14-.97,2.33-2.67,3.81-5.13,4.44-1.07.27-2.14.32-3.23.39-.36.07-.72.01-1.07.03-.65.02-1.31-.04-1.96.03-1.43,0-2.85,0-4.28,0-.65-.07-1.3-.01-1.96-.03-.36-.02-.72.04-1.08-.03Z"/><path class="cls-10" d="m24.24,10.63c-.4.17-.83.06-1.24.07-.69.02-1.39,0-2.08,0-.03-.02-.03-.04-.02-.06.01-.01.02-.02.04-.02,1.1,0,2.2,0,3.3,0Z"/><path class="cls-2" d="m10.78,20.83c0,.98.09,1.97-.06,2.94,0-.97,0-1.94,0-2.91,0-.04.03-.05.07-.03Z"/><path class="cls-2" d="m10.71,26.11c.16.98.07,1.96.06,2.94-.04.02-.06,0-.07-.03v-2.91Z"/><path class="cls-15" d="m39.33,23.68c-.15-.91-.07-1.83-.07-2.75.03-.03.06-.02.07.02,0,.91,0,1.82,0,2.72Z"/><path class="cls-14" d="m39.26,29.05c0-.92-.08-1.83.07-2.74,0,.91,0,1.81,0,2.72-.01.04-.03.05-.07.02Z"/><path class="cls-1" d="m29.13,10.7c-.66,0-1.32.09-1.97-.06.65,0,1.3,0,1.94,0,.03,0,.04.02.04.04,0,.02,0,.03-.02.03Z"/><path class="cls-1" d="m20.91,39.19c.66,0,1.32-.1,1.97.06-.65,0-1.3,0-1.94,0-.03,0-.04-.02-.04-.04,0-.02,0-.03.02-.03Z"/><path class="cls-1" d="m27.16,39.25c.65-.16,1.31-.06,1.97-.06.02.03.02.06-.02.07-.65,0-1.3,0-1.94,0Z"/><path class="cls-5" d="m10.78,20.83s-.04.02-.07.03c-.03-.4-.06-.8.07-1.19,0,.39,0,.77,0,1.16Z"/><path class="cls-8" d="m39.33,20.96s-.04-.02-.07-.02c0-.39,0-.78,0-1.16.12.39.09.79.07,1.19Z"/><path class="cls-7" d="m10.71,29.02s.04.02.07.03c0,.39,0,.77,0,1.16-.13-.39-.09-.79-.07-1.19Z"/><path class="cls-6" d="m39.26,29.05s.04-.02.07-.02c.02.4.06.8-.07,1.19,0-.39,0-.77,0-1.16Z"/><path class="cls-13" d="m20.94,10.64s0,.05-.02.07c-.36,0-.72,0-1.07,0,.36-.11.73-.09,1.09-.06Z"/><path class="cls-18" d="m29.13,10.7s-.01-.04-.02-.07c.37-.02.73-.06,1.09.07-.36,0-.71,0-1.07,0Z"/><path class="cls-11" d="m20.91,39.19s.02.04.02.07c-.37.02-.73.06-1.09-.07.36,0,.71,0,1.07,0Z"/><path class="cls-11" d="m29.1,39.25s.02-.04.02-.07c.36,0,.71,0,1.07,0-.36.13-.72.09-1.09.07Z"/><path class="cls-3" d="m29.02,13.24c1.27,0,2.54.02,3.78.31,2.08.5,3.47,2.17,3.73,4.26.13,1.07.18,2.14.19,3.22.04.07.04.16.04.24,0,2.45,0,4.89,0,7.34,0,.08,0,.16-.04.24.01,1.3,0,2.61-.31,3.88-.49,2.03-2.1,3.42-4.17,3.72-1.04.15-2.07.19-3.11.19-.17.07-.35.04-.53.04-2.38,0-4.76,0-7.14,0-.18,0-.36-.03-.53.03-1.39-.1-2.8-.03-4.16-.53-1.67-.61-2.68-1.78-3.14-3.47-.2-.73-.31-1.46-.3-2.22,0-.3.01-.6-.08-.9-.06-.2-.07-.45.07-.65-.05-.09-.04-.19-.04-.28,0-2.48,0-4.96,0-7.43,0-.1-.01-.2.04-.28-.2-.34-.02-.68,0-1.02.04-.58.02-1.15.1-1.73.3-2.32,1.52-4.03,3.87-4.66,1.2-.32,2.42-.26,3.64-.29,2.7-.07,5.4-.07,8.1,0Z"/><path class="cls-12" d="m20.92,36.71c.05-.08.13-.09.21-.09,2.66,0,5.33.01,7.99.02-.19.15-.4.08-.6.08-2.53,0-5.06,0-7.59,0Z"/><path class="cls-21" d="m29.02,13.24c-2.7,0-5.4,0-8.1,0,.2-.16.44-.07.65-.08,2.33,0,4.66,0,6.99,0,.15,0,.33-.07.46.08Z"/><path class="cls-16" d="m13.32,20.94c0,2.67,0,5.34,0,8-.12-.1-.08-.24-.08-.36,0-2.43,0-4.86,0-7.28,0-.12-.05-.26.08-.36Z"/><path class="cls-20" d="m36.72,28.85c0-2.6,0-5.21,0-7.81.12.08.08.2.08.31,0,2.4,0,4.79,0,7.19,0,.11.04.23-.08.31Z"/><path class="cls-4" d="m17.69,24.45c.26-3.72,3.19-6.54,6.74-6.83.39-.05.78-.05,1.18,0,3.6.33,6.38,3.05,6.73,6.73.05.36.05.72,0,1.08-.29,3.72-3.14,6.55-6.83,6.83-.33.05-.65.05-.98,0-3.87-.28-6.62-3.38-6.83-6.83-.05-.33-.05-.66,0-.98Z"/><path class="cls-4" d="m32.56,19c-.87,0-1.56-.82-1.61-1.76-.03-.7.76-1.71,1.69-1.64,1.1.08,1.69.64,1.71,1.68.03,1.14-.88,1.76-1.79,1.72Z"/><path class="cls-19" d="m25.61,17.62h-1.18c.39-.14.78-.14,1.18,0Z"/><path class="cls-22" d="m32.35,25.43c0-.36,0-.72,0-1.08.13.36.14.72,0,1.08Z"/><path class="cls-17" d="m17.69,24.45c0,.33,0,.66,0,.98-.13-.33-.13-.66,0-.98Z"/><path class="cls-9" d="m24.53,32.27h.98c-.33.13-.65.13-.98,0Z"/><path class="cls-3" d="m20.25,24.92c-.08-2.66,2.37-4.84,4.79-4.77,2.66.08,4.77,2.12,4.75,4.83-.02,2.67-2.16,4.7-4.79,4.75-2.35.05-4.84-2.08-4.75-4.81Z"/></g></g></svg>