<?xml version="1.0" encoding="UTF-8"?><svg id="Capa_2" xmlns="http://www.w3.org/2000/svg" viewBox="0 0 49.95 49.96"><defs><style>.cls-1{fill:#bfbdc0;}.cls-2{fill:#bbb9bc;}.cls-3{fill:#fff;}.cls-4{fill:#302a48;}.cls-5{fill:#7d7b80;}.cls-6{fill:#777479;}.cls-7{fill:#a6a3a7;}.cls-8{fill:#514f54;}.cls-9{fill:#807d82;}.cls-10{fill:#5b595e;}.cls-11{fill:#e1e0e2;}.cls-12{fill:#59575d;}.cls-13{fill:#918e93;}.cls-14{fill:#a2a0a4;}</style></defs><g id="Capa_1-2"><g><path class="cls-3" d="m26.86,49.96h-3.9c-.8-.1-1.61-.09-2.41-.23-3.15-.58-6.08-1.72-8.8-3.41-1.59-.99-3.07-2.13-4.39-3.46-2.19-2.2-3.98-4.7-5.24-7.56-.74-1.67-1.34-3.38-1.7-5.17-.24-1.18-.42-2.36-.41-3.57,0-1.59-.09-3.18.1-4.76.44-3.6,1.65-6.93,3.57-10,1.05-1.69,2.25-3.26,3.69-4.64C11.49,3.21,16.34.76,22.02.11c1.51-.17,3.04-.1,4.57-.05,1.39.04,2.74.23,4.09.53,2.72.61,5.24,1.67,7.61,3.15,1.58.98,3.04,2.12,4.35,3.43,2.2,2.2,3.96,4.71,5.25,7.55.73,1.62,1.24,3.31,1.64,5.03.23.98.34,1.98.37,2.99,0,.11-.04.23.05.33v3.99c-.15.91-.14,1.83-.33,2.74-.37,1.72-.82,3.4-1.51,5.02-1,2.33-2.33,4.45-3.96,6.39-1.9,2.28-4.18,4.11-6.73,5.6-1.92,1.12-3.96,1.93-6.11,2.49-1.35.35-2.72.6-4.12.61-.11,0-.23-.04-.33.05Z"/><path class="cls-4" d="m27.33,21.89c.95-1.39,2.19-2.34,3.88-2.66,1.24-.24,2.44-.15,3.65.19,2.07.57,3.38,1.94,4.12,3.89.31.82.55,1.67.55,2.56,0,.27.07.53.11.8.05.13.03.26.03.38,0,3.43,0,6.86,0,10.3,0,.14.05.29-.06.42-1.98,0-3.95,0-5.93,0-.1-.17-.05-.35-.05-.52,0-2.96,0-5.92,0-8.87,0-.18.03-.36-.03-.53,0-.7-.15-1.39-.33-2.06-.28-1.06-1.24-1.71-2.34-1.86-.92-.13-1.68.07-2.38.6-.81.61-1.23,1.45-1.38,2.44.05.16.03.32.03.48,0,3.27,0,6.54,0,9.81,0,.17.06.36-.06.52-1.98,0-3.95,0-5.93,0-.11-.56-.04-1.13-.05-1.69-.01-.76,0-1.52,0-2.29,0-1.14,0-2.28,0-3.42,0-3.27,0-6.53,0-9.8.03-.34-.06-.69.06-1.03,1.95-.05,3.9-.02,5.85-.02.03,0,.06.03.09.04h0c.1.65.01,1.3.05,1.95,0,.13-.13.33.13.38Z"/><path class="cls-4" d="m17.69,37.77c-1.97,0-3.95,0-5.92,0-.09-.11-.05-.25-.05-.37,0-5.85,0-11.69,0-17.54,0-.1,0-.19.03-.29.14-.08.28-.05.43-.05,1.7,0,3.4,0,5.11,0,.14,0,.29-.03.43.04h0c.08.16.04.32.04.48,0,5.75,0,11.51,0,17.26,0,.16.05.33-.06.47Z"/><path class="cls-4" d="m14.18,16.95c-1.84-.16-2.79-1.64-2.82-2.86-.06-2.21,1.67-3.63,3.88-3.32,1.43.2,2.42.84,2.76,2.24.49,2.01-.57,3.66-2.72,3.94-.37.06-.73.05-1.1,0Z"/><path class="cls-7" d="m11.77,19.57c0,1.72-.01,3.44-.01,5.16,0,4.35,0,8.69,0,13.04-.19-.06-.1-.22-.1-.33,0-5.89,0-11.78,0-17.67,0-.06.01-.13.02-.19.03-.05.06-.05.09,0Z"/><path class="cls-9" d="m17.69,37.77c0-4.25,0-8.51.01-12.76,0-1.82,0-3.64,0-5.45.17.12.09.3.09.45,0,5.78,0,11.55,0,17.33,0,.14.1.33-.1.43Z"/><path class="cls-8" d="m39.61,37.77c0-3.54,0-7.08.01-10.62,0-.16.01-.32.02-.49.12.16.08.34.08.52,0,3.38,0,6.76,0,10.15,0,.15.07.33-.11.44Z"/><path class="cls-12" d="m27.14,37.77c0-3.21,0-6.43.01-9.64,0-.39.01-.78.02-1.17.13.1.08.24.08.36,0,3.34,0,6.68,0,10.01,0,.15.08.33-.11.44Z"/><path class="cls-11" d="m33.59,27.84c.14.17.08.37.08.56,0,3.12,0,6.24,0,9.36-.15-.02-.1-.14-.1-.23,0-3.23,0-6.47.01-9.7Z"/><path class="cls-6" d="m21.19,20.55c0,3.28,0,6.55,0,9.83-.02,0-.04,0-.07,0,0-3.28,0-6.57,0-9.85.03-.03.06-.02.07.02Z"/><path class="cls-5" d="m11.77,19.57h-.04s-.04,0-.04,0c.08-.15.22-.11.34-.11,1.79,0,3.58,0,5.38,0,.11,0,.23-.04.3.09-1.98,0-3.95.01-5.93.02Z"/><path class="cls-5" d="m27.15,19.56c-1.98,0-3.95,0-5.93,0-.03.04-.06.04-.09,0,.06-.14.19-.1.29-.1,1.81,0,3.62,0,5.44,0,.1,0,.23-.04.3.1Z"/><path class="cls-1" d="m21.19,33.78c0,1.33.01,2.66.02,3.99-.2-.05-.1-.21-.1-.32,0-1.22,0-2.44.02-3.66.02,0,.04,0,.07-.01Z"/><path class="cls-13" d="m21.19,33.78s-.04.01-.07.01c0-1.14,0-2.27,0-3.41.02,0,.04,0,.07,0,0,1.13,0,2.27,0,3.4Z"/><path class="cls-10" d="m27.33,21.89c-.17.26-.19.1-.19-.07,0-.75,0-1.51,0-2.26.2.34.04.72.09,1.07.06.42-.11.85.09,1.26Z"/><path class="cls-14" d="m14.18,16.95c.37,0,.73,0,1.1,0-.37.14-.73.14-1.1,0Z"/><path class="cls-2" d="m21.12,19.57s.06,0,.09,0c0,.32-.02.65-.03.97-.02,0-.04-.01-.07-.02,0-.32,0-.64,0-.96Z"/></g></g></svg>