<?xml version="1.0" encoding="UTF-8"?><svg id="Capa_2" xmlns="http://www.w3.org/2000/svg" viewBox="0 0 49.97 49.97"><defs><style>.cls-1{fill:#666369;}.cls-2{fill:#fff;}.cls-3{fill:#302a48;}.cls-4{fill:#716f74;}.cls-5{fill:#716e74;}.cls-6{fill:#737075;}</style></defs><g id="Capa_1-2"><g><path class="cls-2" d="m26.88,49.97h-3.9c-.83-.1-1.67-.1-2.5-.25-1.94-.36-3.8-.97-5.61-1.76-2.35-1.04-4.49-2.41-6.41-4.12-2.15-1.91-3.96-4.11-5.36-6.63-1.23-2.23-2.14-4.58-2.66-7.08-.22-1.05-.36-2.11-.41-3.18-.2-4.26.29-8.38,2.15-12.29,1.21-2.54,2.74-4.84,4.68-6.89,2.06-2.17,4.41-3.92,7.08-5.24C16.55,1.24,19.28.33,22.18.12c2.69-.19,5.39-.2,8.04.37,4.08.87,7.72,2.64,10.91,5.33,2.56,2.16,4.64,4.72,6.18,7.69.86,1.64,1.49,3.38,1.98,5.17.39,1.45.56,2.92.68,4.4v3.99c-.13.62-.09,1.25-.19,1.87-.73,4.78-2.73,8.98-5.9,12.6-2.8,3.19-6.19,5.55-10.19,7.02-1.67.61-3.37,1.06-5.13,1.28-.56.07-1.13.03-1.68.13Z"/><path class="cls-3" d="m31.08,13.72c1.28.17,2.41.68,3.33,1.6.19.19.35.14.57.09,1.11-.25,2.16-.67,3.23-1.28-.45,1.35-1.26,2.31-2.46,3.12,1.16-.12,2.14-.41,3.2-.83-.64.96-1.31,1.75-2.14,2.36-.51.37-.65.78-.67,1.4-.19,5.61-2.47,10.14-7.06,13.43-1.9,1.37-4.06,2.16-6.37,2.53-.58.09-1.17.14-1.76.2-.69.06-1.37.05-2.06,0-2.77-.09-5.28-1.02-7.76-2.47,1.57.07,3.02.02,4.43-.39,1.41-.41,2.71-1.04,3.93-1.98-2.55-.33-4.36-1.56-5.29-4.01.81.14,1.58.08,2.52-.1-2.86-.91-4.34-2.77-4.59-5.73.84.41,1.62.68,2.51.69-1.33-1.12-2.23-2.47-2.37-4.24-.05-.33-.05-.66,0-.99.04-.84.3-1.6.73-2.38.29.31.55.61.83.89,1.92,2.02,4.22,3.44,6.87,4.33,1.22.41,2.47.58,3.72.76.63.09.26-.42.33-.66-.06-.43-.05-.85,0-1.28.22-2.53,2.35-4.81,5.07-5.07.43-.05.85-.05,1.28,0Z"/><path class="cls-5" d="m18.89,36.35c.69,0,1.37,0,2.06,0-.69.13-1.37.15-2.06,0Z"/><path class="cls-6" d="m31.08,13.72c-.43,0-.85,0-1.28,0,.43-.15.85-.14,1.28,0Z"/><path class="cls-4" d="m24.72,18.79c0,.43,0,.85,0,1.28-.14-.43-.15-.85,0-1.28Z"/><path class="cls-1" d="m12.25,17.13c0,.33,0,.66,0,.99-.13-.33-.13-.66,0-.99Z"/></g></g></svg>