<?xml version="1.0" encoding="UTF-8"?><svg id="Capa_2" xmlns="http://www.w3.org/2000/svg" viewBox="0 0 49.94 49.94"><defs><style>.cls-1{fill:#858287;}.cls-2{fill:#d7d6d9;}.cls-3{fill:#fff;}.cls-4{fill:#928f94;}.cls-5{fill:#a09da2;}.cls-6{fill:#312a48;}.cls-7{fill:#dddcde;}.cls-8{fill:#807d82;}.cls-9{fill:#807e83;}.cls-10{fill:#aeacb0;}.cls-11{fill:#c5c3c6;}.cls-12{fill:#464449;}.cls-13{fill:#a8a6aa;}.cls-14{fill:#5c5a5f;}.cls-15{fill:#827f84;}.cls-16{fill:#838085;}.cls-17{fill:#6a676d;}</style></defs><g id="Capa_1-2"><g><path class="cls-3" d="m22.9,0h3.9c.93.12,1.87.12,2.79.29,3.08.58,5.95,1.69,8.62,3.35,1.59.99,3.07,2.14,4.39,3.46,2.19,2.19,3.94,4.68,5.23,7.51.74,1.62,1.25,3.31,1.65,5.04.31,1.33.45,2.69.46,4.05.02,1.75.06,3.51-.23,5.24-.33,1.99-.85,3.93-1.65,5.79-.99,2.32-2.32,4.42-3.93,6.36-1.92,2.31-4.22,4.17-6.81,5.67-1.92,1.12-3.97,1.92-6.12,2.48-1.58.41-3.18.66-4.81.67-1.94.01-3.89.1-5.82-.26-3.72-.69-7.11-2.11-10.19-4.31-3.46-2.48-6.12-5.64-8-9.45-1.14-2.3-1.9-4.72-2.25-7.27-.07-.54-.03-1.09-.12-1.64v-4.09c.1-.78.1-1.57.24-2.36.32-1.89.89-3.69,1.63-5.44.97-2.3,2.31-4.39,3.9-6.31,1.87-2.27,4.12-4.09,6.64-5.56C15.12,1.63,18.04.59,21.17.13c.57-.08,1.16-.03,1.73-.13Z"/><path class="cls-6" d="m40.51,24.85c-.11.26-.09.53-.08.8.06,2.03-.1,4.04-.4,6.04-.24,1.61-1.02,2.84-2.62,3.41-.68.24-1.4.31-2.11.37-1.23.1-2.47.18-3.71.22-.82.03-1.64.03-2.46.08-.57.07-1.14.01-1.71.03-.34.02-.69-.04-1.04.03-.97,0-1.94,0-2.91,0-.68-.08-1.37-.01-2.06-.04-.42-.02-.84.03-1.26-.03-.39-.01-.77-.02-1.16-.03-.36-.09-.73.03-1.09-.07-1.48.02-2.95-.11-4.4-.32-1.88-.27-3.33-1.42-3.68-3.67-.23-1.49-.39-2.98-.4-4.49-.07-.33-.01-.66-.03-.99-.02-.78.04-1.56-.03-2.34-.04-1.35.11-2.68.25-4.02.08-.74.16-1.48.32-2.21.34-1.55,1.69-2.8,3.25-3.03.96-.14,1.92-.27,2.9-.3.51-.02,1.02-.06,1.53-.09.39-.09.8.03,1.19-.07.51-.01,1.03-.02,1.54-.03.42-.07.84-.01,1.26-.03.59-.02,1.18.04,1.78-.04h3.2c.62.08,1.24.01,1.86.04.36.02.72-.03,1.07.03.45,0,.9.02,1.35.03.36.1.73-.02,1.09.07,1.56.1,3.13.14,4.68.41,1.91.34,3.02,1.47,3.38,3.5.26,1.44.35,2.91.42,4.38.07.35.02.7.03,1.05.02.43-.04.86.03,1.29Z"/><path class="cls-7" d="m9.37,23.87c.16.78.05,1.57.07,2.35-.04.03-.06.02-.07-.03,0-.78,0-1.55,0-2.33Z"/><path class="cls-13" d="m21.42,35.77c.69-.03,1.38-.06,2.06.07h-2.03s-.05-.02-.05-.04c0-.02,0-.03.02-.03Z"/><path class="cls-5" d="m28.46,14.12c-.62.02-1.25.05-1.87-.07.61,0,1.23,0,1.84,0,.04,0,.05.02.05.03,0,.02-.01.03-.02.03Z"/><path class="cls-10" d="m23.39,14.04c-.58.13-1.18.09-1.77.07-.03-.02-.03-.04-.02-.05.01,0,.02-.01.04-.01.58,0,1.17,0,1.75,0Z"/><path class="cls-1" d="m27.39,35.78c.58,0,1.17,0,1.75,0-.59.12-1.18.09-1.77.07-.03-.02-.03-.04-.02-.05.01,0,.02-.01.04-.01Z"/><path class="cls-17" d="m21.64,14.05s-.01.04-.02.07c-.42,0-.84,0-1.26,0,.42-.12.85-.09,1.28-.06Z"/><path class="cls-2" d="m40.51,24.85c-.15-.42-.07-.85-.07-1.28.04-.02.06-.02.07.03v1.26Z"/><path class="cls-12" d="m21.42,35.77s.02.04.03.07c-.43.02-.87.09-1.29-.06.42,0,.84,0,1.26,0Z"/><path class="cls-15" d="m18.82,14.14c-.39.12-.79.1-1.19.07.39-.11.79-.11,1.19-.07Z"/><path class="cls-14" d="m28.46,14.12s-.01-.04-.02-.07c.37-.02.73-.07,1.09.06-.36,0-.71,0-1.07,0Z"/><path class="cls-9" d="m31.97,14.21c-.37.04-.73.04-1.09-.07.37-.04.73-.05,1.09.07Z"/><path class="cls-16" d="m40.51,23.59s-.05-.02-.07-.03c0-.36,0-.71,0-1.07.11.36.1.72.07,1.09Z"/><path class="cls-4" d="m17.92,35.67c.37-.04.73-.06,1.09.07-.37.04-.73.03-1.09-.07Z"/><path class="cls-8" d="m9.37,26.2s.05.02.07.03c0,.32,0,.65,0,.97-.12-.33-.1-.66-.06-1Z"/><path class="cls-11" d="m27.39,35.78s-.01.04-.02.07c-.32,0-.65,0-.97,0,.32-.14.66-.08.99-.06Z"/><path class="cls-3" d="m29.98,24.94c-2.75,1.58-5.42,3.12-8.13,4.68v-9.36c2.7,1.56,5.38,3.1,8.13,4.68Z"/></g></g></svg>