<svg xmlns="http://www.w3.org/2000/svg" width="91.996" height="91.996" viewBox="0 0 91.996 91.996">
  <g id="Grupo_36" data-name="Grupo 36" transform="translate(331.914 -4772.169)">
    <g id="devices" transform="translate(-331.914 4772.169)">
      <path id="Trazado_74" data-name="Trazado 74" d="M31,50.165H8v-34.5A7.664,7.664,0,0,1,15.666,8h46a7.664,7.664,0,0,1,7.666,7.666v7.666" transform="translate(7.333 7.333)" fill="none" stroke="#fff" stroke-linecap="round" stroke-linejoin="round" stroke-width="4"/>
      <path id="Trazado_75" data-name="Trazado 75" d="M4,36H50" transform="translate(3.666 32.997)" fill="none" stroke="#fff" stroke-linecap="round" stroke-linejoin="round" stroke-width="4"/>
      <path id="Trazado_76" data-name="Trazado 76" d="M28,20.6A4.867,4.867,0,0,1,33.117,16H53.548a4.867,4.867,0,0,1,5.117,4.6V57.4A4.867,4.867,0,0,1,53.548,62H33.117A4.867,4.867,0,0,1,28,57.4Z" transform="translate(25.664 14.665)" fill="none" stroke="#fff" stroke-linecap="round" stroke-linejoin="round" stroke-width="4"/>
      <path id="Trazado_77" data-name="Trazado 77" d="M36,34h.038" transform="translate(32.997 31.164)" fill="none" stroke="#fff" stroke-linecap="round" stroke-linejoin="round" stroke-width="4"/>
      <path id="Trazado_78" data-name="Trazado 78" d="M0,0H92V92H0Z" fill="none"/>
    </g>
    <text id="_" data-name="!" transform="translate(-296.416 4790.21)" fill="#eedd1b" font-size="30" font-family="Quicksand-Medium, Quicksand" font-weight="500"><tspan x="-3" y="30">!</tspan></text>
    <text id="_2" data-name="!" transform="translate(-273.651 4809.21)" fill="#eedd1b" font-size="30" font-family="Quicksand-Medium, Quicksand" font-weight="500"><tspan x="-3" y="30">!</tspan></text>
  </g>
</svg>
