<svg xmlns="http://www.w3.org/2000/svg" width="94.814" height="61.622" viewBox="0 0 94.814 61.622">
  <g id="build" transform="translate(-3.205 40.465) rotate(43)">
    <g id="build-2" data-name="build" transform="translate(-8.241 -50.938)">
      <path id="Trazado_93" data-name="Trazado 93" d="M11.152,18.618a2.969,2.969,0,0,0,4.318,0L18,15.977a3.282,3.282,0,0,0,0-4.5L12.27,5.5a.152.152,0,0,1-.03-.1.141.141,0,0,1,.061-.074A10.44,10.44,0,0,1,23.832,7.672c2.916,3.023,3.078,7.563,2.012,11.52a3.288,3.288,0,0,0,.864,3.193l15.87,15.137a4.913,4.913,0,0,1,1.412,4.731,4.709,4.709,0,0,1-3.353,3.5,4.486,4.486,0,0,1-4.542-1.474L21.444,27.667a2.94,2.94,0,0,0-3.007-.9c-3.769,1.05-8.057.849-10.932-2.111-3.089-3.182-3.759-8.8-2.256-12.029a.13.13,0,0,1,.071-.053A.113.113,0,0,1,5.4,12.6Z" transform="translate(2.193 -4.5)" fill="none" stroke="#eedd1b" stroke-linecap="round" stroke-width="3"/>
      <path id="Trazado_94" data-name="Trazado 94" d="M7.5,38.077a.536.536,0,0,0,.485.577.586.586,0,0,0,0-1.155A.536.536,0,0,0,7.5,38.077Z" transform="translate(2.348 -13.575)" fill="none"/>
      <path id="Trazado_95" data-name="Trazado 95" d="M15.509,0H0V18.476H15.509Z" transform="translate(0 10.428)" fill="none"/>
    </g>
    <path id="Trazado_93-2" data-name="Trazado 93" d="M11.152,18.618a2.969,2.969,0,0,0,4.318,0L18,15.977a3.282,3.282,0,0,0,0-4.5L12.27,5.5a.152.152,0,0,1-.03-.1.141.141,0,0,1,.061-.074A10.44,10.44,0,0,1,23.832,7.672c2.916,3.023,3.078,7.563,2.012,11.52a3.288,3.288,0,0,0,.864,3.193l15.87,15.137a4.913,4.913,0,0,1,1.412,4.731,4.709,4.709,0,0,1-3.353,3.5,4.486,4.486,0,0,1-4.542-1.474L21.444,27.667a2.94,2.94,0,0,0-3.007-.9c-3.769,1.05-8.057.849-10.932-2.111-3.089-3.182-3.759-8.8-2.256-12.029a.13.13,0,0,1,.071-.053A.113.113,0,0,1,5.4,12.6Z" transform="translate(18.291 -78.134)" fill="none" stroke="#fff" stroke-linecap="round" stroke-width="3"/>
    <path id="Trazado_94-2" data-name="Trazado 94" d="M7.5,38.077a.536.536,0,0,0,.485.577.586.586,0,0,0,0-1.155A.536.536,0,0,0,7.5,38.077Z" transform="translate(1.059 -72.072)" fill="none"/>
    <path id="Trazado_95-2" data-name="Trazado 95" d="M15.509,0H0V18.476H15.509Z" transform="translate(-1.289 -48.069)" fill="none"/>
  </g>
</svg>
