<svg xmlns="http://www.w3.org/2000/svg" width="77.61" height="67.943" viewBox="0 0 77.61 67.943">
  <g id="enter" transform="translate(10.805 11.942)">
    <path id="Trazado_33" data-name="Trazado 33" d="M0,0H56V56H0Z" fill="none"/>
    <g id="enter-2" data-name="enter" transform="translate(111.949 -11.943)">
      <path id="Trazado_32" data-name="Trazado 32" d="M18.449,3.2a2.05,2.05,0,0,0,0,4.1H49.2V52.4H18.449a2.05,2.05,0,0,0,0,4.1H49.2a4.1,4.1,0,0,0,4.1-4.1V7.3a4.1,4.1,0,0,0-4.1-4.1Zm8.622,15.976a2.047,2.047,0,0,0-2.9,2.9L29.9,27.8H2.05a2.05,2.05,0,1,0,0,4.1H29.9l-5.727,5.727a2.047,2.047,0,0,0,2.9,2.9L36.3,31.3a2.034,2.034,0,0,0,0-2.9Z" transform="translate(-122.754 11.446)" fill="#fff" fill-rule="evenodd"/>
      <path id="Trazado_33-2" data-name="Trazado 33" d="M0,0H24.314V24.314H0Z" transform="translate(-69.457)" fill="none"/>
      <path id="Trazado_162" data-name="Trazado 162" d="M27.071,39.208a2.047,2.047,0,1,0-2.9,2.9L29.9,47.83H2.05a2.05,2.05,0,1,0,0,4.1H29.9l-5.727,5.727a2.047,2.047,0,0,0,2.9,2.9L36.3,51.328a2.034,2.034,0,0,0,0-2.9Z" transform="translate(-122.754 -8.585)" fill="#eedd1b" fill-rule="evenodd"/>
    </g>
  </g>
</svg>
