<svg xmlns="http://www.w3.org/2000/svg" width="55.07" height="65.141" viewBox="0 0 55.07 65.141">
  <g id="file_find" data-name="file find" transform="translate(54 60)">
    <path id="Trazado_37" data-name="Trazado 37" d="M38.414,4.924A3.081,3.081,0,0,0,36.2,4H14.268A6.266,6.266,0,0,0,8,10.268V60.41a6.266,6.266,0,0,0,6.268,6.268H51.874a6.266,6.266,0,0,0,6.268-6.268V25.937a3.081,3.081,0,0,0-.924-2.209ZM14.268,10.268H34.9l16.97,16.97V55.991l-8.038-8.054A12.666,12.666,0,1,0,39.4,52.371L47.44,60.41H14.268Zm18.8,37.606a6.268,6.268,0,1,1,6.268-6.268A6.266,6.266,0,0,1,33.071,47.874Z" transform="translate(-57.072 -61.536)" fill="#fff"/>
    <path id="Trazado_38" data-name="Trazado 38" d="M0,0H29.568V29.568H0Z" transform="translate(-54 -60)" fill="none"/>
    <path id="Trazado_161" data-name="Trazado 161" d="M61.045,87.62c3.463,0,4.434-.956,4.434-4.419C65.479,83.2,61,87.405,61.045,87.62ZM65.479,83.2l-8.038-8.054a12.666,12.666,0,1,0-4.434,4.434l8.038,8.038Zm-18.8-8.117a6.268,6.268,0,1,1,6.268-6.268A6.266,6.266,0,0,1,46.676,75.084Z" transform="translate(-70.677 -88.746)" fill="#eedd1b"/>
  </g>
</svg>
