<svg xmlns="http://www.w3.org/2000/svg" width="392" height="848" viewBox="0 0 392 848">
  <g id="Grupo_1946" data-name="Grupo 1946" transform="translate(-1310 -4436)">
    <g id="Grupo_1940" data-name="Grupo 1940" transform="translate(1310 4436)">
      <g id="Rectángulo_951" data-name="Rectángulo 951" transform="translate(0 0)" fill="#141220" stroke="#fff" stroke-width="3">
        <rect width="392" height="848" rx="66" stroke="none"/>
        <rect x="1.5" y="1.5" width="389" height="845" rx="64.5" fill="none"/>
      </g>
      <path id="Sustracción_1" data-name="Sustracción 1" d="M391,59H0c0-.074,0-.147,0-.22V58.6A58.547,58.547,0,0,1,58.6,0H332.4A58.547,58.547,0,0,1,391,58.6c0,.134,0,.269,0,.4Z" transform="translate(0 0)" fill="#fff"/>
      <text id="_1_año_de_servicio_incluido_Botón_de_Pánico_Dispositivo_GPS_Corte_motor_Plataforma_web_Aplicación_para_celular_Visualización_en_tiempo_real_Anti_bloqueo_de_señal_Geozonas_Reportes_Alertas_en_tiempo_real_Alertas_de_Mantenimiento_Rutas_Puntos_de" data-name="1 año de servicio incluido

Botón de Pánico

Dispositivo GPS

Corte motor

Plataforma web 

Aplicación para celular

Visualización en tiempo real

Anti bloqueo de señal

Geozonas

Reportes

Alertas en tiempo real

Alertas de Mantenimiento

Rutas

Puntos de" transform="translate(44 107)" fill="#fff" font-size="20" font-family="Quicksand-Regular, Quicksand" letter-spacing="0.025em"><tspan x="32" y="20">1 año de servicio incluido</tspan><tspan x="152" y="40"></tspan><tspan x="73" y="60">Botón de Pánico</tspan><tspan x="152" y="80"></tspan><tspan x="78" y="100">Dispositivo GPS</tspan><tspan x="152" y="120"></tspan><tspan x="93" y="140">Corte motor</tspan><tspan x="152" y="160"></tspan><tspan x="75" y="180">Plataforma web </tspan><tspan x="152" y="200"></tspan><tspan x="41" y="220">Aplicación para celular</tspan><tspan x="152" y="240"></tspan><tspan x="17" y="260">Visualización en tiempo real</tspan><tspan x="152" y="280"></tspan><tspan x="48" y="300">Anti bloqueo de señal</tspan><tspan x="152" y="320"></tspan><tspan x="105" y="340">Geozonas</tspan><tspan x="152" y="360"></tspan><tspan x="109" y="380">Reportes</tspan><tspan x="152" y="400"></tspan><tspan x="45" y="420">Alertas en tiempo real</tspan><tspan x="152" y="440"></tspan><tspan x="28" y="460">Alertas de Mantenimiento</tspan><tspan x="152" y="480"></tspan><tspan x="125" y="500">Rutas</tspan><tspan x="152" y="520"></tspan><tspan x="69" y="540">Puntos de interés</tspan></text>
    </g>
    <text id="GPS_Personas" data-name="GPS Personas" transform="translate(1398 4456)" fill="#141220" font-size="24" font-family="Quicksand-Bold, Quicksand" font-weight="700"><tspan x="-88" y="24">GPS PERSONAS</tspan></text>
  </g>
</svg>
