<svg id="Grupo_1967" data-name="Grupo 1967" xmlns="http://www.w3.org/2000/svg" xmlns:xlink="http://www.w3.org/1999/xlink" width="257.031" height="94.708" viewBox="0 0 257.031 94.708">
  <defs>
    <clipPath id="clip-path">
      <rect id="Rectángulo_886" data-name="Rectángulo 886" width="257.03" height="92.698" fill="none"/>
    </clipPath>
  </defs>
  <path id="Trazado_5530" data-name="Trazado 5530" d="M317.622,0V0Z" transform="translate(-150.347)"/>
  <g id="Grupo_1859" data-name="Grupo 1859" transform="translate(0 2.01)">
    <g id="Grupo_1858" data-name="Grupo 1858" clip-path="url(#clip-path)">
      <path id="Trazado_5531" data-name="Trazado 5531" d="M104.24,96.491c0-4.422-.033-8.845.022-13.266a13.679,13.679,0,0,1,.616-3.557,15.68,15.68,0,0,1,2.324-5.006,11.194,11.194,0,0,1,7.191-4.483,12.472,12.472,0,0,1,7.665.846,11.565,11.565,0,0,1,4.816,4.011c.306.439.413.364.69-.021a11.553,11.553,0,0,1,8.364-4.969,12.218,12.218,0,0,1,8.85,2.193,12.487,12.487,0,0,1,4.544,6.681,24.737,24.737,0,0,1,.995,7.571q-.015,11.6.011,23.192c0,.565-.152.705-.7.688-1.3-.041-2.6-.057-3.9.005-.659.032-.745-.2-.744-.781C145,102.148,145,94.7,145,87.255a24.329,24.329,0,0,0-.646-6.362c-.739-2.754-2.245-4.857-5.213-5.449a7.623,7.623,0,0,0-6.065,1.022,6.466,6.466,0,0,0-2.387,3.669,19.192,19.192,0,0,0-.73,5.54q0,11.992.015,23.983c0,.606-.165.733-.737.714-1.339-.045-2.681-.039-4.02,0-.506.014-.635-.119-.634-.629.018-7.731.049-15.462-.011-23.192a20.862,20.862,0,0,0-.813-6.627,6.085,6.085,0,0,0-4.823-4.466c-2.6-.461-5.086-.241-7.02,1.853a9.264,9.264,0,0,0-2.07,4.6,28.63,28.63,0,0,0-.368,5.85c.007,7.3,0,14.609.016,21.914,0,.551-.131.714-.692.7-1.339-.044-2.681-.036-4.021,0-.485.012-.6-.135-.6-.608.017-4.423.01-8.847.01-13.27h.053" transform="translate(-49.312 -33.099)" fill="#efdd12"/>
      <path id="Trazado_5532" data-name="Trazado 5532" d="M230.565,121.874c-.673-.738-1.363-1.463-2.014-2.22A16.85,16.85,0,0,1,227.068,118c-.079-.121-.192-.256-.413-.018a12.919,12.919,0,0,1-7.247,3.965,14.913,14.913,0,0,1-11.169-1.988,12.23,12.23,0,0,1-4.735-5.847,14.319,14.319,0,0,1-.887-7.06,12.73,12.73,0,0,1,3.247-7.19,13.2,13.2,0,0,1,4.478-3.351,16.264,16.264,0,0,1,12.708-.034,12.393,12.393,0,0,1,6.817,8.014,18.821,18.821,0,0,1,.847,5.585c.033,3.693.009,7.387.009,11.081v.65l-.159.07m-5.16-13.082a14.1,14.1,0,0,0-.159-1.932,8.7,8.7,0,0,0-14.08-5.425,9.151,9.151,0,0,0-3.258,7.833,8.752,8.752,0,0,0,17.5-.476" transform="translate(-95.861 -45.054)" fill="#efdd12"/>
      <path id="Trazado_5533" data-name="Trazado 5533" d="M286.629,105.635c-.69,0-1.382-.017-2.072.007-.328.012-.49-.055-.561-.414a8.01,8.01,0,0,0-1.849-3.7,5.945,5.945,0,0,0-3.34-1.948,6.808,6.808,0,0,0-4.621.631,6.276,6.276,0,0,0-2.784,3.23c-.155.35.067.42.295.518q2.265.982,4.53,1.964,4.914,2.14,9.827,4.283c.827.36,1.647.738,2.487,1.066.529.206.792.415.622,1.086a14.263,14.263,0,0,1-3.325,6.6,10.343,10.343,0,0,1-6.343,3.145,12.469,12.469,0,0,1-7.3-1.04,11.505,11.505,0,0,1-5.352-5.658,24.226,24.226,0,0,1-1.076-3.029c-.1-.328-.056-.638.486-.622,1.38.041,2.763.027,4.144.006.408-.006.513.129.607.532a7.225,7.225,0,0,0,3.17,4.8,6.989,6.989,0,0,0,7.23-.339,6.531,6.531,0,0,0,2.028-2.522c.168-.356.279-.59-.3-.832-2.953-1.227-5.864-2.557-8.8-3.83-2.6-1.126-5.2-2.226-7.805-3.333-.843-.358-.842-.35-.557-1.475a15.464,15.464,0,0,1,2.022-4.692,10.237,10.237,0,0,1,7.839-4.779,11.565,11.565,0,0,1,12.7,7.745,18.594,18.594,0,0,1,.684,2.177c.09.339,0,.437-.331.431-.752-.013-1.5,0-2.255,0" transform="translate(-125.78 -45.057)" fill="#efdd12"/>
      <path id="Trazado_5534" data-name="Trazado 5534" d="M233.259,77.371c-1.175,2.338-2.3,4.564-3.407,6.8a.494.494,0,0,1-.531.289c-1.4-.007-2.8-.013-4.2,0-.4,0-.447-.1-.273-.446,1.071-2.1,2.038-4.247,3.2-6.3.121-.215.229-.347.5-.345,1.539.009,3.079,0,4.72,0" transform="translate(-106.386 -36.622)" fill="#efdd12"/>
      <path id="Trazado_5535" data-name="Trazado 5535" d="M390.15,118.955v.615q0,9,.009,17.991c0,.42-.095.554-.535.545-1.418-.03-2.838-.019-4.256,0-.308,0-.428-.053-.428-.4q.021-13.808.021-27.616a16.748,16.748,0,0,1,1.333-6.421A12.516,12.516,0,0,1,396.427,96.1a14.291,14.291,0,0,1,8.948,1.45,12.633,12.633,0,0,1,6.857,9.275,12.967,12.967,0,0,1-2.794,10.987,12.32,12.32,0,0,1-6.16,3.922,16.154,16.154,0,0,1-5.539.617,11.729,11.729,0,0,1-3.02-.669,12.442,12.442,0,0,1-4.57-2.729m17.113-10.067a9.809,9.809,0,0,0-.328-2.545,8.494,8.494,0,0,0-14.311-3.883,8.985,8.985,0,0,0-2.237,8.489A8.431,8.431,0,0,0,402.42,116.9c3.324-1.592,4.706-4.45,4.843-8.008" transform="translate(-182.213 -45.407)" fill="#fff"/>
      <path id="Trazado_5536" data-name="Trazado 5536" d="M464.9,106.031c-.748,0-1.5,0-2.246,0-.211,0-.279-.04-.337-.294a7.326,7.326,0,0,0-3.565-5.053,6.26,6.26,0,0,0-3.968-.585,5.6,5.6,0,0,0-3.476,1.724,7.281,7.281,0,0,0-1.329,2.108c-.089.2-.09.315.184.434q7.209,3.12,14.4,6.277,1.27.555,2.552,1.084c.265.11.351.219.277.55a14.9,14.9,0,0,1-2.526,5.846,10.226,10.226,0,0,1-5.367,3.693,11.9,11.9,0,0,1-4.626.434,11,11,0,0,1-5.728-2.146,12.262,12.262,0,0,1-4.2-6.057c-.183-.534-.324-1.082-.468-1.627-.063-.24-.02-.4.31-.392,1.466.017,2.932.009,4.4,0,.2,0,.279.037.33.266a8.936,8.936,0,0,0,1.178,2.99,5.8,5.8,0,0,0,4.235,2.7,6.457,6.457,0,0,0,5.113-1.319,5.213,5.213,0,0,0,1.824-2.622c.047-.153.12-.2-.12-.3-2.345-.986-4.676-2-7.008-3.02q-3.684-1.606-7.362-3.225c-.87-.38-1.735-.777-2.622-1.116-.325-.125-.331-.294-.265-.551a17.42,17.42,0,0,1,1.495-4.094,10.319,10.319,0,0,1,7.256-5.639,11.994,11.994,0,0,1,7.723.852,10.949,10.949,0,0,1,4.6,4.255,14.078,14.078,0,0,1,1.831,4.568c.053.259-.034.25-.21.25q-1.146,0-2.293,0" transform="translate(-210.384 -45.362)" fill="#fff"/>
      <path id="Trazado_5537" data-name="Trazado 5537" d="M352.347,108.882c0,7.255-6.111,13.336-14.314,13.336s-14.315-6.081-14.315-13.336,6.111-13.336,14.315-13.336a13.655,13.655,0,0,1,8.919,3.574h5.4Zm-14.314,8.962a8.962,8.962,0,1,0-8.919-8.962c.164,5.067,3.743,8.962,8.919,8.962m-8.919,9.442,8.919,10.3,8.919-10.3Z" transform="translate(-153.233 -45.227)" fill="#fff"/>
      <path id="Trazado_5538" data-name="Trazado 5538" d="M.515,65.477A22.2,22.2,0,0,1,4.18,52.836,20.347,20.347,0,0,1,15.3,44.747a23.741,23.741,0,0,1,7.883-1.272,22.808,22.808,0,0,1,13.727,4.764,21.633,21.633,0,0,1,5.547,6.579,18.117,18.117,0,0,1,2.1,5.642,21.8,21.8,0,0,1,.507,5.679,29.676,29.676,0,0,1-1.224,6.523,26.983,26.983,0,0,1-4.621,8.517c-.263.34-.575.641-.864.961-.074.082-.124.145-.25.034q-1.178-1.041-2.374-2.061c-.838-.714-1.691-1.411-2.529-2.125-.647-.551-1.277-1.121-1.926-1.669a5.83,5.83,0,0,0-.661-.569c-.275-.166-.169-.273-.046-.418a22.727,22.727,0,0,0,2.2-3.176,13.126,13.126,0,0,0,1.521-4.177,13.769,13.769,0,0,0,.333-3.931,11.215,11.215,0,0,0-7.39-9.51,11.44,11.44,0,0,0-4.868-.794,15.562,15.562,0,0,0-5.106,1.218,10.673,10.673,0,0,0-3.241,2.126,9.164,9.164,0,0,0-2.38,4.037,11.869,11.869,0,0,0-.732,3.838c.007.189-.08.253-.255.288q-2.064.4-4.125.809c-1.689.34-3.377.688-5.065,1.031a1.405,1.405,0,0,1-.279.024c-.2,0-.439.211-.585.077-.164-.151-.07-.436-.08-.661-.014-.35,0-.7,0-1.053" transform="translate(-0.237 -20.576)" fill="#0660f6"/>
      <path id="Trazado_5539" data-name="Trazado 5539" d="M.515,65.477A22.2,22.2,0,0,1,4.18,52.836,20.347,20.347,0,0,1,15.3,44.747a23.741,23.741,0,0,1,7.883-1.272,22.808,22.808,0,0,1,13.727,4.764,21.633,21.633,0,0,1,5.547,6.579,18.117,18.117,0,0,1,2.1,5.642,21.8,21.8,0,0,1,.507,5.679,29.676,29.676,0,0,1-1.224,6.523,26.983,26.983,0,0,1-4.621,8.517c-.263.34-.575.641-.864.961-.074.082-.124.145-.25.034q-1.178-1.041-2.374-2.061c-.838-.714-1.691-1.411-2.529-2.125-.647-.551-1.277-1.121-1.926-1.669a5.83,5.83,0,0,0-.661-.569c-.275-.166-.169-.273-.046-.418a22.727,22.727,0,0,0,2.2-3.176,13.126,13.126,0,0,0,1.521-4.177,13.769,13.769,0,0,0,.333-3.931,11.215,11.215,0,0,0-7.39-9.51,11.44,11.44,0,0,0-4.868-.794,15.562,15.562,0,0,0-5.106,1.218,10.673,10.673,0,0,0-3.241,2.126,9.164,9.164,0,0,0-2.38,4.037,11.869,11.869,0,0,0-.732,3.838c.007.189-.08.253-.255.288q-2.064.4-4.125.809c-1.689.34-3.377.688-5.065,1.031a1.405,1.405,0,0,1-.279.024c-.2,0-.439.211-.585.077-.164-.151-.07-.436-.08-.661C.5,66.18.515,65.828.515,65.477Z" transform="translate(-0.237 -20.576)" fill="none" stroke="#efdd12" stroke-width="1"/>
      <path id="Trazado_5540" data-name="Trazado 5540" d="M1.645,93.925c-.023-.244.055-.3.244-.334,2.343-.448,4.682-.912,7.023-1.369.873-.17,1.751-.311,2.616-.51.282-.065.34.021.409.246a22.357,22.357,0,0,0,1.728,4.135,41.1,41.1,0,0,0,3.4,5.116,46.283,46.283,0,0,0,4.9,5.369c.164.159.364.284.512.456.227.265.4.161.6-.025,1.436-1.338,2.864-2.683,4.238-4.085a11.253,11.253,0,0,0,1.077-1.192c.266-.363.418-.256.662-.058.844.686,1.693,1.367,2.537,2.054,1.647,1.34,3.288,2.687,4.942,4.018.174.141.187.2.038.362-1.2,1.279-2.349,2.6-3.618,3.815-1.587,1.516-3.2,3-4.871,4.43-1.613,1.384-3.258,2.726-4.9,4.076a.392.392,0,0,1-.588,0c-1.175-.94-2.336-1.9-3.532-2.808-1.171-.891-2.29-1.84-3.388-2.815-1.2-1.066-2.339-2.2-3.437-3.364-.914-.97-1.758-2-2.632-3.011a42.035,42.035,0,0,1-3.287-4.444,35.829,35.829,0,0,1-2.659-4.717A32.042,32.042,0,0,1,1.658,93.98a.527.527,0,0,1-.013-.055" transform="translate(-0.777 -43.402)" fill="#efdd0b"/>
      <path id="Trazado_5541" data-name="Trazado 5541" d="M1.645,93.925c-.023-.244.055-.3.244-.334,2.343-.448,4.682-.912,7.023-1.369.873-.17,1.751-.311,2.616-.51.282-.065.34.021.409.246a22.357,22.357,0,0,0,1.728,4.135,41.1,41.1,0,0,0,3.4,5.116,46.283,46.283,0,0,0,4.9,5.369c.164.159.364.284.512.456.227.265.4.161.6-.025,1.436-1.338,2.864-2.683,4.238-4.085a11.253,11.253,0,0,0,1.077-1.192c.266-.363.418-.256.662-.058.844.686,1.693,1.367,2.537,2.054,1.647,1.34,3.288,2.687,4.942,4.018.174.141.187.2.038.362-1.2,1.279-2.349,2.6-3.618,3.815-1.587,1.516-3.2,3-4.871,4.43-1.613,1.384-3.258,2.726-4.9,4.076a.392.392,0,0,1-.588,0c-1.175-.94-2.336-1.9-3.532-2.808-1.171-.891-2.29-1.84-3.388-2.815-1.2-1.066-2.339-2.2-3.437-3.364-.914-.97-1.758-2-2.632-3.011a42.035,42.035,0,0,1-3.287-4.444,35.829,35.829,0,0,1-2.659-4.717A32.042,32.042,0,0,1,1.658,93.98.527.527,0,0,1,1.645,93.925Z" transform="translate(-0.777 -43.402)" fill="none" stroke="#0660f6" stroke-width="1"/>
    </g>
  </g>
</svg>
