<svg id="instagram" xmlns="http://www.w3.org/2000/svg" width="36.151" height="36.15" viewBox="0 0 36.151 36.15">
  <path id="Trazado_105" data-name="Trazado 105" d="M19.063,4c4.09,0,4.6.015,6.206.09a11.055,11.055,0,0,1,3.66.7,7.349,7.349,0,0,1,2.666,1.74A7.371,7.371,0,0,1,33.335,9.2a11.21,11.21,0,0,1,.7,3.66c.068,1.6.09,2.116.09,6.206s-.015,4.6-.09,6.206a11.252,11.252,0,0,1-.7,3.66,7.245,7.245,0,0,1-1.74,2.666,7.371,7.371,0,0,1-2.666,1.74,11.21,11.21,0,0,1-3.66.7c-1.6.068-2.116.09-6.206.09s-4.6-.015-6.206-.09a11.252,11.252,0,0,1-3.66-.7,7.736,7.736,0,0,1-4.406-4.406,11.015,11.015,0,0,1-.7-3.66c-.068-1.6-.09-2.116-.09-6.206s.015-4.6.09-6.206a11.015,11.015,0,0,1,.7-3.66,7.245,7.245,0,0,1,1.74-2.666A7.308,7.308,0,0,1,9.2,4.791a11.015,11.015,0,0,1,3.66-.7C14.461,4.023,14.973,4,19.063,4Zm0,7.531a7.531,7.531,0,1,0,7.531,7.531A7.534,7.534,0,0,0,19.063,11.531Zm9.791-.377a1.883,1.883,0,1,0-1.883,1.883A1.884,1.884,0,0,0,28.853,11.155Zm-9.791,3.389a4.519,4.519,0,1,1-4.519,4.519A4.522,4.522,0,0,1,19.063,14.544Z" transform="translate(-0.987 -0.987)" fill="#fff"/>
  <path id="Trazado_106" data-name="Trazado 106" d="M0,0H36.151V36.15H0Z" fill="none"/>
</svg>
