<svg id="Grupo_2" data-name="Grupo 2" xmlns="http://www.w3.org/2000/svg" xmlns:xlink="http://www.w3.org/1999/xlink" width="177.286" height="48.997" viewBox="0 0 177.286 48.997">
  <defs>
    <clipPath id="clip-path">
      <rect id="Rectángulo_2" data-name="Rectángulo 2" width="177.287" height="48.997" fill="none"/>
    </clipPath>
  </defs>
  <g id="Grupo_1" data-name="Grupo 1" clip-path="url(#clip-path)">
    <path id="Trazado_1" data-name="Trazado 1" d="M.055,23.3c0-3.878-.029-7.757.019-11.634a12,12,0,0,1,.54-3.119,13.751,13.751,0,0,1,2.038-4.39A9.817,9.817,0,0,1,8.958.223,10.939,10.939,0,0,1,15.68.965,10.142,10.142,0,0,1,19.9,4.482c.268.385.363.32.605-.018A10.131,10.131,0,0,1,27.843.106,10.714,10.714,0,0,1,35.6,2.029a10.949,10.949,0,0,1,3.985,5.858,21.692,21.692,0,0,1,.872,6.639q-.013,10.169.009,20.338c0,.5-.133.618-.613.6-1.139-.036-2.282-.05-3.419,0-.578.028-.653-.178-.652-.685.017-6.53.01-13.06.012-19.591a21.335,21.335,0,0,0-.566-5.579c-.648-2.415-1.968-4.26-4.572-4.778a6.684,6.684,0,0,0-5.319.9,5.668,5.668,0,0,0-2.093,3.218,16.815,16.815,0,0,0-.641,4.858q0,10.516.013,21.032c0,.531-.145.643-.646.626-1.174-.039-2.352-.034-3.526,0-.444.012-.557-.1-.556-.551.016-6.779.043-13.559-.01-20.338a18.3,18.3,0,0,0-.713-5.812A5.336,5.336,0,0,0,12.941,4.85c-2.279-.4-4.46-.211-6.156,1.625A8.126,8.126,0,0,0,4.97,10.512a25.1,25.1,0,0,0-.322,5.13c.006,6.406,0,12.811.014,19.217,0,.484-.115.626-.607.61-1.174-.038-2.351-.032-3.526,0C.1,35.477,0,35.348,0,34.934.015,31.055.009,27.176.009,23.3Z" transform="translate(0 0)" fill="#fff"/>
    <path id="Trazado_2" data-name="Trazado 2" d="M330.247,101.9c-.59-.647-1.2-1.282-1.766-1.947a14.811,14.811,0,0,1-1.3-1.454c-.069-.106-.168-.225-.363-.016a11.329,11.329,0,0,1-6.355,3.477,13.077,13.077,0,0,1-9.794-1.743,10.725,10.725,0,0,1-4.152-5.128,12.558,12.558,0,0,1-.778-6.191,11.165,11.165,0,0,1,2.847-6.305,11.575,11.575,0,0,1,3.927-2.938,14.262,14.262,0,0,1,11.144-.03,10.868,10.868,0,0,1,5.978,7.028,16.5,16.5,0,0,1,.743,4.9c.029,3.239.008,6.478.008,9.717v.57l-.139.061m-4.525-11.472a12.375,12.375,0,0,0-.139-1.694,7.633,7.633,0,0,0-12.348-4.757,8.025,8.025,0,0,0-2.857,6.869,7.675,7.675,0,0,0,15.344-.417" transform="translate(-260.233 -66.831)" fill="#fff"/>
    <path id="Trazado_3" data-name="Trazado 3" d="M520.44,87.68c-.605,0-1.212-.015-1.817.007-.287.011-.43-.048-.492-.364a7.023,7.023,0,0,0-1.622-3.249,5.214,5.214,0,0,0-2.929-1.708,5.971,5.971,0,0,0-4.052.553,5.5,5.5,0,0,0-2.442,2.833c-.136.307.059.368.259.454q1.986.861,3.972,1.723,4.31,1.877,8.617,3.756c.725.316,1.445.647,2.181.935.464.181.695.364.545.953a12.507,12.507,0,0,1-2.916,5.784,9.07,9.07,0,0,1-5.563,2.758,10.934,10.934,0,0,1-6.4-.912,10.09,10.09,0,0,1-4.694-4.962,21.261,21.261,0,0,1-.943-2.656c-.092-.287-.049-.56.426-.545,1.211.036,2.423.024,3.634.005.357-.006.45.113.533.467a6.336,6.336,0,0,0,2.78,4.213,6.129,6.129,0,0,0,6.34-.3,5.727,5.727,0,0,0,1.779-2.211c.147-.312.244-.518-.266-.729-2.59-1.076-5.142-2.243-7.716-3.359-2.276-.987-4.561-1.952-6.845-2.923-.739-.314-.738-.307-.489-1.293a13.562,13.562,0,0,1,1.773-4.115,8.978,8.978,0,0,1,6.874-4.191,10.142,10.142,0,0,1,11.14,6.792,16.312,16.312,0,0,1,.6,1.909c.079.3,0,.383-.29.378-.659-.012-1.318,0-1.977,0" transform="translate(-427.498 -66.851)" fill="#fff"/>
    <path id="Trazado_4" data-name="Trazado 4" d="M382.223,23.133c-1.03,2.051-2.015,4-2.988,5.96a.433.433,0,0,1-.466.253c-1.228-.006-2.456-.011-3.685,0-.35,0-.392-.092-.239-.391.939-1.839,1.787-3.725,2.8-5.526.106-.189.2-.3.435-.3,1.35.008,2.7,0,4.139,0" transform="translate(-319.077 -19.692)" fill="#fff"/>
    <path id="Trazado_5" data-name="Trazado 5" d="M877.229,101.01v.539q0,7.888.008,15.777c0,.368-.083.485-.469.478-1.244-.026-2.489-.017-3.732,0-.27,0-.376-.046-.375-.35q.019-12.108.018-24.218a14.687,14.687,0,0,1,1.169-5.631,10.976,10.976,0,0,1,8.886-6.633,12.532,12.532,0,0,1,7.847,1.272,11.078,11.078,0,0,1,6.014,8.133,11.372,11.372,0,0,1-2.451,9.636,10.8,10.8,0,0,1-5.4,3.44,14.169,14.169,0,0,1-4.857.541,10.281,10.281,0,0,1-2.649-.587,10.908,10.908,0,0,1-4.007-2.393m15.007-8.828a8.612,8.612,0,0,0-.287-2.232,7.448,7.448,0,0,0-12.55-3.405,7.878,7.878,0,0,0-1.961,7.444A7.393,7.393,0,0,0,887.989,99.2c2.915-1.4,4.127-3.9,4.247-7.022" transform="translate(-742.994 -68.808)" fill="#fff"/>
    <path id="Trazado_6" data-name="Trazado 6" d="M1075.566,89.467c-.656,0-1.313,0-1.969,0-.185,0-.245-.035-.3-.258a6.425,6.425,0,0,0-3.127-4.431,5.489,5.489,0,0,0-3.48-.513,4.912,4.912,0,0,0-3.048,1.512,6.373,6.373,0,0,0-1.166,1.849c-.078.174-.079.277.161.381q6.322,2.736,12.63,5.5,1.114.486,2.238.951c.232.1.308.192.243.482a13.062,13.062,0,0,1-2.215,5.126,8.967,8.967,0,0,1-4.706,3.238,10.437,10.437,0,0,1-4.056.381,9.643,9.643,0,0,1-5.023-1.882,10.752,10.752,0,0,1-3.68-5.312c-.16-.468-.284-.949-.41-1.427-.055-.211-.017-.347.272-.344,1.285.015,2.571.008,3.857,0,.173,0,.245.033.289.234a7.837,7.837,0,0,0,1.033,2.622,5.085,5.085,0,0,0,3.714,2.369,5.662,5.662,0,0,0,4.484-1.156,4.573,4.573,0,0,0,1.6-2.3c.042-.134.105-.174-.1-.262-2.056-.865-4.1-1.757-6.146-2.648q-3.231-1.408-6.456-2.828c-.763-.334-1.522-.681-2.3-.979-.285-.109-.29-.258-.233-.483a15.27,15.27,0,0,1,1.31-3.59,9.051,9.051,0,0,1,6.364-4.945,10.518,10.518,0,0,1,6.773.747,9.6,9.6,0,0,1,4.036,3.731,12.346,12.346,0,0,1,1.606,4.005c.047.227-.03.219-.184.219q-1,0-2.01,0" transform="translate(-900.488 -68.558)" fill="#fff"/>
    <path id="Trazado_7" data-name="Trazado 7" d="M693.016,82.767a11.974,11.974,0,0,0-7.821-3.135c-7.194,0-12.553,5.333-12.553,11.7S678,103.022,685.2,103.022a13.063,13.063,0,0,0,7.851-2.53V108h0c0,2.8-2.864,4.4-6.4,4.4s-6.193-1.6-6.193-4.4h-4.909c0,4.859,4.97,8.8,11.1,8.8s11.1-3.939,11.1-8.8V82.767ZM685.2,99.186c-4.538,0-7.677-3.415-7.822-7.859a7.821,7.821,0,1,1,7.822,7.859" transform="translate(-572.696 -67.8)" fill="#fff"/>
  </g>
</svg>
