<svg id="monitor_heart_rate" data-name="monitor heart rate" xmlns="http://www.w3.org/2000/svg" width="58.22" height="58.22" viewBox="0 0 58.22 58.22">
  <path id="Trazado_27" data-name="Trazado 27" d="M22.919,49.945a2.69,2.69,0,0,0,1.027-.216,2.946,2.946,0,0,0,.892-.568,3.281,3.281,0,0,0,.324-.432,1.5,1.5,0,0,0,.243-.459,1.576,1.576,0,0,0,.216-.486,3.608,3.608,0,0,0,0-.541,2.69,2.69,0,0,0-.216-1.027,2.437,2.437,0,0,0-1.459-1.459,2.722,2.722,0,0,0-1.568-.216l-.486.162a1.5,1.5,0,0,0-.459.243A3.281,3.281,0,0,0,21,45.27a2.79,2.79,0,0,0-.568.892,2.721,2.721,0,0,0,2.486,3.784Zm-10.027-.784a2.946,2.946,0,0,0,.892.568,2.69,2.69,0,0,0,1.027.216h.514a1.749,1.749,0,0,0,.514-.162,1.643,1.643,0,0,0,.486-.243l.405-.324a2.946,2.946,0,0,0,.568-.892,2.282,2.282,0,0,0,.216-1.081,3.609,3.609,0,0,0,0-.541,1.476,1.476,0,0,0-.162-.486,1.5,1.5,0,0,0-.243-.459,3.281,3.281,0,0,0-.324-.432,2.709,2.709,0,0,0-2.946-.568,2.79,2.79,0,0,0-.892.568,3.281,3.281,0,0,0-.324.432,1.5,1.5,0,0,0-.243.459,1.721,1.721,0,0,0-.27.486,3.609,3.609,0,0,0,0,.541,2.69,2.69,0,0,0,.216,1.027A2.946,2.946,0,0,0,12.892,49.162ZM49.945,4H12.108A8.114,8.114,0,0,0,4,12.108V49.945a8.114,8.114,0,0,0,8.108,8.108H49.945a8.114,8.114,0,0,0,8.108-8.108V12.108A8.114,8.114,0,0,0,49.945,4Zm2.7,45.945a2.711,2.711,0,0,1-2.7,2.7H12.108a2.711,2.711,0,0,1-2.7-2.7V41.837H52.648Zm0-13.513H9.405V25.621H20.216a2.756,2.756,0,0,0,1.919-.784l3.486-3.378,7.567,8.649a2.716,2.716,0,0,0,1.946.919h0a2.756,2.756,0,0,0,1.919-.784l4.54-4.622H52.648Zm0-16.216H40.486A2.756,2.756,0,0,0,38.567,21l-3.351,3.378L27.648,15.73a2.712,2.712,0,0,0-3.946,0l-4.595,4.486h-9.7V12.108a2.711,2.711,0,0,1,2.7-2.7H49.945a2.711,2.711,0,0,1,2.7,2.7Z" transform="translate(0.166 0.166)" fill="#fff"/>
  <path id="Trazado_28" data-name="Trazado 28" d="M0,0H51.388V51.388H0Z" fill="none"/>
  <path id="Trazado_158" data-name="Trazado 158" d="M33.55,98.487a2.947,2.947,0,0,0,1.125-.237,3.228,3.228,0,0,0,.977-.622,3.593,3.593,0,0,0,.355-.474,1.645,1.645,0,0,0,.266-.5,1.726,1.726,0,0,0,.237-.533,3.951,3.951,0,0,0,0-.592,2.947,2.947,0,0,0-.237-1.125,2.669,2.669,0,0,0-1.6-1.6,2.981,2.981,0,0,0-1.717-.237l-.533.178a1.646,1.646,0,0,0-.5.266,3.6,3.6,0,0,0-.474.355,3.056,3.056,0,0,0-.622.977,2.98,2.98,0,0,0,2.723,4.144Zm-10.982-.858a3.228,3.228,0,0,0,.977.622,2.947,2.947,0,0,0,1.125.237h.562a1.915,1.915,0,0,0,.562-.178,1.8,1.8,0,0,0,.533-.266l.444-.355a3.227,3.227,0,0,0,.622-.977,2.5,2.5,0,0,0,.237-1.184,3.953,3.953,0,0,0,0-.592,1.617,1.617,0,0,0-.178-.533,1.645,1.645,0,0,0-.266-.5,3.594,3.594,0,0,0-.355-.474A2.967,2.967,0,0,0,23.6,92.8a3.056,3.056,0,0,0-.977.622,3.594,3.594,0,0,0-.355.474,1.645,1.645,0,0,0-.266.5,1.885,1.885,0,0,0-.3.533,3.953,3.953,0,0,0,0,.592,2.947,2.947,0,0,0,.237,1.125A3.227,3.227,0,0,0,22.568,97.629Z" transform="translate(-10.082 -48.099)" fill="#eedd1b"/>
  <path id="Trazado_160" data-name="Trazado 160" d="M-104.925,57H-94.05l5.426-6.268,9.358,12.753.724-.7,4.641-5.717h12.317" transform="translate(114.447 -33.76)" fill="none" stroke="#eedd1b" stroke-linejoin="round" stroke-width="5.5"/>
</svg>
