<svg xmlns="http://www.w3.org/2000/svg" xmlns:xlink="http://www.w3.org/1999/xlink" width="88.896" height="62.127" viewBox="0 0 88.896 62.127">
  <defs>
    <clipPath id="clip-path">
      <rect id="Rectángulo_14" data-name="Rectángulo 14" width="88.896" height="62.127" fill="none" stroke="#fff" stroke-width="3"/>
    </clipPath>
  </defs>
  <g id="Grupo_25" data-name="Grupo 25" transform="translate(0 0)">
    <line id="Línea_1" data-name="Línea 1" y2="3.329" transform="translate(47.48 13.945)" fill="none" stroke="#fff" stroke-linecap="round" stroke-width="3"/>
    <g id="Grupo_22" data-name="Grupo 22" transform="translate(0 0)">
      <g id="Grupo_21" data-name="Grupo 21" clip-path="url(#clip-path)">
        <line id="Línea_2" data-name="Línea 2" x2="4.933" transform="translate(10.673 39.721)" fill="none" stroke="#fff" stroke-linecap="round" stroke-width="3"/>
        <line id="Línea_3" data-name="Línea 3" x2="4.933" transform="translate(10.673 45.504)" fill="none" stroke="#fff" stroke-linecap="round" stroke-width="3"/>
        <line id="Línea_4" data-name="Línea 4" x1="3.921" transform="translate(74.231 28.924)" fill="none" stroke="#fff" stroke-linecap="round" stroke-width="3"/>
        <line id="Línea_5" data-name="Línea 5" x1="3.921" transform="translate(74.231 34.478)" fill="none" stroke="#fff" stroke-linecap="round" stroke-width="3"/>
      </g>
    </g>
    <line id="Línea_6" data-name="Línea 6" y2="3.329" transform="translate(41.595 13.945)" fill="none" stroke="#fff" stroke-linecap="round" stroke-width="3"/>
    <g id="Grupo_24" data-name="Grupo 24" transform="translate(0 0)">
      <g id="Grupo_23" data-name="Grupo 23" clip-path="url(#clip-path)">
        <path id="Trazado_57" data-name="Trazado 57" d="M5.735,10.009,9.6,9.992A6.5,6.5,0,0,0,13.6,8.464l7.1-5.071a7.352,7.352,0,0,1,4.1-1.253h30.2a3.365,3.365,0,0,1,3.4,3.338V26.225a3.459,3.459,0,0,1-3.492,3.423H53.49A5.943,5.943,0,0,0,50,30.789L36.931,40.347a6.639,6.639,0,0,1-3.9,1.261H5a3.019,3.019,0,0,1-3.046-2.994V12.857A2.9,2.9,0,0,1,4.885,10l.927.009" transform="translate(14.788 16.23)" fill="none" stroke="#fff" stroke-width="3"/>
        <line id="Línea_7" data-name="Línea 7" y2="13.033" transform="translate(26.489 37.443)" fill="none" stroke="#eedd1b" stroke-linecap="round" stroke-width="3"/>
        <line id="Línea_13" data-name="Línea 13" y2="13.033" transform="translate(66.168 25.466)" fill="none" stroke="#eedd1b" stroke-linecap="round" stroke-width="3"/>
        <path id="Trazado_58" data-name="Trazado 58" d="M3.749,6.531v2.6H28.133V6.042A5.586,5.586,0,0,0,22.5.5H9.884A6.085,6.085,0,0,0,3.749,6.531Z" transform="translate(28.417 3.783)" fill="none" stroke="#fff" stroke-linecap="round" stroke-width="3"/>
        <path id="Trazado_59" data-name="Trazado 59" d="M1.761,3.56c.867,0,2.016-.009,2.891-.009A1.247,1.247,0,0,1,5.922,4.8l-.18,21.6a1.267,1.267,0,0,1-1.27,1.244H1.77A1.258,1.258,0,0,1,.5,26.4V4.8A1.249,1.249,0,0,1,1.761,3.56Z" transform="translate(3.79 26.917)" fill="none" stroke="#fff" stroke-linecap="round" stroke-width="3"/>
        <path id="Trazado_60" data-name="Trazado 60" d="M10.49,2.332c.867,0,2.016-.009,2.891-.009a1.247,1.247,0,0,1,1.27,1.253l-.18,21.6a1.267,1.267,0,0,1-1.27,1.244H10.5a1.258,1.258,0,0,1-1.27-1.253V3.576A1.249,1.249,0,0,1,10.49,2.332Z" transform="translate(69.954 17.609)" fill="none" stroke="#fff" stroke-linecap="round" stroke-width="3"/>
      </g>
    </g>
  </g>
</svg>
