<svg id="radio_button_on" data-name="radio button on" xmlns="http://www.w3.org/2000/svg" width="69.013" height="69.013" viewBox="0 0 69.013 69.013">
  <g id="Grupo_1978" data-name="Grupo 1978" opacity="0">
    <path id="Trazado_5596" data-name="Trazado 5596" d="M0,0H69.013V69.013H0Z" fill="#fff"/>
  </g>
  <path id="Trazado_5597" data-name="Trazado 5597" d="M32.755,4A28.755,28.755,0,1,0,61.511,32.755,28.747,28.747,0,0,0,32.755,4Zm0,51.76a23,23,0,1,1,23-23A23,23,0,0,1,32.755,55.76Z" transform="translate(1.751 1.751)" fill="#fff"/>
  <path id="Trazado_5598" data-name="Trazado 5598" d="M28.378,14A14.378,14.378,0,1,0,42.755,28.378,14.383,14.383,0,0,0,28.378,14Z" transform="translate(6.129 6.129)" fill="#ccbd17"/>
  <path id="Trazado_5599" data-name="Trazado 5599" d="M0,0H69.013V69.013H0Z" fill="none"/>
</svg>
