<svg xmlns="http://www.w3.org/2000/svg" width="504.052" height="333.793" viewBox="0 0 504.052 333.793">
  <g id="reloj_2" data-name="reloj 2" transform="translate(-87.172 -1832.964)">
    <g id="Grupo_1919" data-name="Grupo 1919" transform="translate(169.528 1834.924)">
      <text id="AÑOS" transform="translate(127.332 236.271)" fill="#ccbd17" font-size="21" font-family="Segoe UI"><tspan x="0" y="0">AÑOS</tspan></text>
      <text id="_11" data-name="11" transform="translate(152.262 290.542)" fill="#fff" font-size="6" font-family="Segoe UI"><tspan x="0" y="0">11</tspan></text>
      <text id="_1" data-name="1" transform="translate(60.836 248.623)" fill="#fff" font-size="4" font-family="Segoe UI"><tspan x="0" y="0">1</tspan></text>
      <text id="_2" data-name="2" transform="translate(24.395 184.693)" fill="#fff" font-size="4" font-family="Segoe UI"><tspan x="0" y="0">2</tspan></text>
      <text id="_3" data-name="3" transform="translate(27.921 111.784)" fill="#fff" font-size="4" font-family="Segoe UI"><tspan x="0" y="0">3</tspan></text>
      <text id="_4" data-name="4" transform="translate(68.873 47.867)" fill="#fff" font-size="4" font-family="Segoe UI"><tspan x="0" y="0">4</tspan></text>
      <text id="_6" data-name="6" transform="translate(209.063 26.435)" fill="#fff" font-size="4" font-family="Segoe UI"><tspan x="0" y="0">6</tspan></text>
      <text id="_7" data-name="7" transform="translate(266.517 74.42)" fill="#fff" font-size="4" font-family="Segoe UI"><tspan x="0" y="0">7</tspan></text>
      <text id="_9" data-name="9" transform="translate(278.126 215.374)" fill="#fff" font-size="4" font-family="Segoe UI"><tspan x="0" y="0">9</tspan></text>
      <text id="_10" data-name="10" transform="translate(224.317 271.442)" fill="#fff" font-size="6" font-family="Segoe UI"><tspan x="0" y="0">10</tspan></text>
      <g id="Grupo_1901" data-name="Grupo 1901" transform="translate(23.618 24.383)" opacity="0.5">
        <path id="Trazado_434" data-name="Trazado 434" d="M-1274.216-663.141a2.046,2.046,0,0,1,1.417-2.525h0a2.049,2.049,0,0,1,2.523,1.411h0a2.047,2.047,0,0,1-.184,1.556,2.047,2.047,0,0,1-1.231.969h0a2,2,0,0,1-.556.078h0a2.048,2.048,0,0,1-1.969-1.489Zm63.4-37.655a2.045,2.045,0,0,1-.11-2.888h0a2.042,2.042,0,0,1,1.421-.656,2.041,2.041,0,0,1,1.468.543h0a2.043,2.043,0,0,1,.116,2.888h0a2.04,2.04,0,0,1-1.5.658h0a2.052,2.052,0,0,1-1.387-.543Zm-218.863-26.447h0a2.043,2.043,0,0,1-.183-1.555,2.042,2.042,0,0,1,.972-1.228h0a2.043,2.043,0,0,1,1.554-.184,2.043,2.043,0,0,1,1.229.969h0a2.044,2.044,0,0,1,.184,1.554,2.044,2.044,0,0,1-.969,1.229h0a2.006,2.006,0,0,1-1,.261h0a2.047,2.047,0,0,1-1.782-1.046Zm253.313-38.735a2.047,2.047,0,0,1-1.3-.869,2.047,2.047,0,0,1-.308-1.537h0a2.039,2.039,0,0,1,.867-1.3,2.039,2.039,0,0,1,1.536-.3h0a2.045,2.045,0,0,1,1.612,2.4h0a2.047,2.047,0,0,1-2.005,1.649h0a2.093,2.093,0,0,1-.395-.038Zm-268.692-31.946a2.048,2.048,0,0,1-1.965-2.128h0a2.043,2.043,0,0,1,2.122-1.962h0a2.042,2.042,0,0,1,1.42.655,2.042,2.042,0,0,1,.54,1.468h0a2.041,2.041,0,0,1-2.041,1.964h-.081Zm261.381-42.851h0a2.047,2.047,0,0,1,1.211-2.627h0a2.05,2.05,0,0,1,2.631,1.211h0a2.049,2.049,0,0,1-1.211,2.627h0a2.052,2.052,0,0,1-.708.127h0a2.043,2.043,0,0,1-1.931-1.335Zm-239.593-27.565a2.047,2.047,0,0,1-.556-2.838h0a2.05,2.05,0,0,1,2.837-.567h0a2.047,2.047,0,0,1,.556,2.837h0a2.037,2.037,0,0,1-1.7.908h0a2.055,2.055,0,0,1-1.144-.339Zm196.882-31.172h0a2.042,2.042,0,0,1-.762-1.366,2.043,2.043,0,0,1,.428-1.505h0a2.044,2.044,0,0,1,1.367-.765,2.044,2.044,0,0,1,1.507.426h0a2.041,2.041,0,0,1,.763,1.366,2.041,2.041,0,0,1-.429,1.505h0a2.035,2.035,0,0,1-1.6.781h0a2.049,2.049,0,0,1-1.278-.441Zm-141.495-17.52a2.045,2.045,0,0,1,1-2.713h0a2.043,2.043,0,0,1,1.563-.063,2.043,2.043,0,0,1,1.149,1.061h0a2.047,2.047,0,0,1-1,2.717h0a2.022,2.022,0,0,1-.851.189h0a2.045,2.045,0,0,1-1.87-1.184Zm74.449-10.291a2.047,2.047,0,0,1-1.8-2.27h0a2.05,2.05,0,0,1,2.27-1.791h0a2.042,2.042,0,0,1,1.366.763,2.042,2.042,0,0,1,.425,1.506h0a2.046,2.046,0,0,1-2.033,1.8h0a2.248,2.248,0,0,1-.236-.011Z" transform="translate(1447.023 931.398)" fill="#ccbd17"/>
      </g>
      <g id="Grupo_1902" data-name="Grupo 1902" transform="translate(8.329 8.336)" opacity="0.05">
        <path id="Trazado_437" data-name="Trazado 437" d="M-1331.371-970.621a153,153,0,0,0-153,153,153,153,0,0,0,153,153,153,153,0,0,0,153-153,153,153,0,0,0-153-153Zm0,275.733A122.731,122.731,0,0,1-1454.1-817.619a122.731,122.731,0,0,1,122.729-122.73,122.731,122.731,0,0,1,122.731,122.73A122.732,122.732,0,0,1-1331.371-694.888Z" transform="translate(1484.373 970.621)" fill="#5dc9e6"/>
      </g>
      <text id="_14" data-name="14" transform="translate(108.374 183.525)" fill="#fff" font-size="102" font-family="'DIN \32 014'" font-weight="300" letter-spacing="-0.04em"><tspan x="0" y="0">14</tspan></text>
      <path id="Trazado_441" data-name="Trazado 441" d="M-1226.7-726.15l4.007,3.547a160.727,160.727,0,0,0,40.631-107.051A161.338,161.338,0,0,0-1343.4-990.993a161.338,161.338,0,0,0-161.338,161.338,160.833,160.833,0,0,0,47.255,114.083l3.783-3.783" transform="translate(1504.743 990.993)" fill="none" stroke="#fff" stroke-width="2"/>
      <path id="Trazado_442" data-name="Trazado 442" d="M-1110.42-285.2v5.35a160.876,160.876,0,0,0,116.786-50.025l-3.919-3.643" transform="translate(1271.756 602.52)" fill="none" stroke="#ccbd17" stroke-width="6"/>
    </g>
    <g id="Grupo_1920" data-name="Grupo 1920" transform="translate(87.176 2133.757)">
      <text id="ODO" transform="translate(0 24.916)" fill="#ccbd17" font-size="6" font-family="Segoe UI"><tspan x="0" y="0">ODO</tspan></text>
      <text id="_685000_dispositivos" data-name="685000 dispositivos" transform="translate(25.673 27)" fill="#fff" font-size="25" font-family="SegoeUI, Segoe UI"><tspan x="0" y="0">685000 </tspan><tspan y="0" fill="#ccbd17" font-size="15" font-family="Segoe UI">dispositivos</tspan></text>
    </g>
    <g id="Grupo_1923" data-name="Grupo 1923" transform="translate(428.322 2125.96)">
      <text id="CHILE" transform="translate(77.894 30.808)" fill="#ccbd17" font-size="9" font-family="Segoe UI"><tspan x="0" y="0">CHILE</tspan></text>
      <text id="_1600" data-name="1600" transform="translate(0 31)" fill="#fff" font-size="29" font-family="Segoe UI"><tspan x="0" y="0">1600</tspan></text>
    </g>
    <g id="Grupo_1922" data-name="Grupo 1922" transform="translate(87.172 1855.522)">
      <g id="Grupo_1909" data-name="Grupo 1909" transform="translate(0 0)">
        <path id="Trazado_443" data-name="Trazado 443" d="M-1723.524-877.544h-5.316v16.669h2.081v-6.354h3.237c3.866,0,6.065-1.933,6.065-5.145S-1719.684-877.544-1723.524-877.544Zm0,8.431h-3.237v-6.547h3.237c2.826,0,3.985,1.209,3.985,3.286s-1.167,3.261-3.985,3.261Z" transform="translate(1743.695 883.843)" fill="#fff"/>
        <path id="Trazado_444" data-name="Trazado 444" d="M-1735.979-891.194a14.3,14.3,0,0,0-14.28,14.278,14.3,14.3,0,0,0,14.28,14.28,14.3,14.3,0,0,0,14.278-14.28,14.3,14.3,0,0,0-14.278-14.278Zm0,27.355a13.091,13.091,0,0,1-13.077-13.077,13.09,13.09,0,0,1,13.077-13.077,13.092,13.092,0,0,1,13.077,13.077,13.092,13.092,0,0,1-13.077,13.079Z" transform="translate(1755.232 891.194)" fill="#fff"/>
        <path id="Trazado_445" data-name="Trazado 445" d="M-1691.644-890.041a.9.9,0,0,0-1.275,0,.9.9,0,0,0,0,1.275,17.315,17.315,0,0,1,5.107,12.328,17.318,17.318,0,0,1-5.107,12.33.9.9,0,0,0-.265.638.9.9,0,0,0,.265.638.9.9,0,0,0,.638.265.9.9,0,0,0,.637-.265,19.106,19.106,0,0,0,5.636-13.6A19.107,19.107,0,0,0-1691.644-890.041Z" transform="translate(1724.493 890.714)" fill="#fff"/>
        <path id="Trazado_446" data-name="Trazado 446" d="M-1759.211-876.437a17.322,17.322,0,0,1,5.107-12.328.9.9,0,0,0,0-1.275.9.9,0,0,0-1.275,0,19.106,19.106,0,0,0-5.635,13.6,19.1,19.1,0,0,0,5.635,13.6.9.9,0,0,0,.638.265.9.9,0,0,0,.637-.265.9.9,0,0,0,0-1.275,17.324,17.324,0,0,1-5.108-12.331Z" transform="translate(1761.013 890.715)" fill="#fff"/>
      </g>
      <g id="Grupo_1911" data-name="Grupo 1911" transform="translate(0.346 148.909)">
        <path id="Trazado_450" data-name="Trazado 450" d="M-1724.549-527.913V-542.7h5.073v-1.892H-1731.7v1.892h5.073v14.785Z" transform="translate(1744.882 555.644)" fill="#fff"/>
        <path id="Trazado_451" data-name="Trazado 451" d="M-1699.955-563.687a18.5,18.5,0,0,0-4.084-3,1.959,1.959,0,0,0-.5-1.205,1.975,1.975,0,0,0-2.788-.157,1.974,1.974,0,0,0-.657,1.362,1.975,1.975,0,0,0,.5,1.427,1.971,1.971,0,0,0,2.7.225,16.671,16.671,0,0,1,3.566,2.648,16.585,16.585,0,0,1,5.081,12,16.733,16.733,0,0,1-.46,3.9.9.9,0,0,0,.668,1.088.92.92,0,0,0,.21.025.9.9,0,0,0,.878-.693,18.587,18.587,0,0,0,.509-4.322,18.371,18.371,0,0,0-5.628-13.3Z" transform="translate(1732.117 568.552)" fill="#fff"/>
        <path id="Trazado_452" data-name="Trazado 452" d="M-1753-561.311a16.546,16.546,0,0,1,6.511-4.161.9.9,0,0,0,.516-.459.9.9,0,0,0,.04-.69.9.9,0,0,0-1.146-.556,18.313,18.313,0,0,0-7.217,4.606,18.424,18.424,0,0,0-5.223,12.89q0,.69.053,1.379c-.046.034-.091.07-.135.108a1.975,1.975,0,0,0-.155,2.788,1.969,1.969,0,0,0,1.559.656h.043a.9.9,0,0,0,.206-.025l.081-.023a1.961,1.961,0,0,0,.9-.458,1.975,1.975,0,0,0,.157-2.788,1.969,1.969,0,0,0-.868-.567c-.023-.36-.036-.721-.036-1.08a16.631,16.631,0,0,1,4.714-11.62Z" transform="translate(1760.257 567.831)" fill="#fff"/>
        <path id="Trazado_453" data-name="Trazado 453" d="M-1721.643-504.972a1.975,1.975,0,0,0-.6,1.926,16.568,16.568,0,0,1-10.026,3.339,16.756,16.756,0,0,1-10.328-3.571.9.9,0,0,0-1.266.149.9.9,0,0,0,.15,1.268,18.563,18.563,0,0,0,11.444,3.959,18.349,18.349,0,0,0,11.21-3.77,1.973,1.973,0,0,0,2.062-.354,1.975,1.975,0,0,0,.155-2.788,1.975,1.975,0,0,0-1.365-.66,1.975,1.975,0,0,0-1.431.5Z" transform="translate(1751.555 534.587)" fill="#fff"/>
      </g>
      <g id="Grupo_1912" data-name="Grupo 1912" transform="translate(0.004 75.424)">
        <path id="Trazado_454" data-name="Trazado 454" d="M-1742.717-727.748h-2.925a15.35,15.35,0,0,0-15.369,15.322h0a15.35,15.35,0,0,0,15.369,15.332h2.925a35.469,35.469,0,0,0,0-30.664Zm-1.158,28.859h-1.767a13.564,13.564,0,0,1-13.565-13.531,13.561,13.561,0,0,1,13.565-13.525h1.767a33.884,33.884,0,0,1,2.837,13.527,33.9,33.9,0,0,1-2.833,13.523Z" transform="translate(1761.011 727.758)" fill="#ccbd17"/>
        <path id="Trazado_455" data-name="Trazado 455" d="M-1709.726-725.26h13.885a.6.6,0,0,0,.6-.6.6.6,0,0,0-.6-.6h-13.885a.6.6,0,0,0-.6.6.6.6,0,0,0,.6.6Z" transform="translate(1733.721 727.068)" fill="#ccbd17"/>
        <path id="Trazado_456" data-name="Trazado 456" d="M-1695.841-665.211h-13.885a.6.6,0,0,0-.6.6.6.6,0,0,0,.6.6h13.885a.6.6,0,0,0,.6-.6A.6.6,0,0,0-1695.841-665.211Z" transform="translate(1733.721 694.085)" fill="#ccbd17"/>
        <path id="Trazado_457" data-name="Trazado 457" d="M-1693.74-680.53h-12.086a.6.6,0,0,0-.6.6.6.6,0,0,0,.6.6h12.086a.6.6,0,0,0,.6-.6.6.6,0,0,0-.6-.6Z" transform="translate(1731.623 702.335)" fill="#ccbd17"/>
        <path id="Trazado_458" data-name="Trazado 458" d="M-1693.222-695.837h-11.636a.6.6,0,0,0-.6.6.6.6,0,0,0,.6.6h11.636a.6.6,0,0,0,.6-.6.6.6,0,0,0-.6-.6Z" transform="translate(1731.094 710.577)" fill="#ccbd17"/>
        <path id="Trazado_459" data-name="Trazado 459" d="M-1693.74-711.15h-12.086a.6.6,0,0,0-.6.6.6.6,0,0,0,.6.6h12.086a.6.6,0,0,0,.6-.6.6.6,0,0,0-.6-.6Z" transform="translate(1731.623 718.823)" fill="#ccbd17"/>
      </g>
      <g id="Grupo_1915" data-name="Grupo 1915" transform="translate(0 229.456)">
        <path id="Trazado_465" data-name="Trazado 465" d="M-1735.979-394.03a14.3,14.3,0,0,0-14.28,14.28,14.3,14.3,0,0,0,14.28,14.28,14.3,14.3,0,0,0,14.278-14.28,14.3,14.3,0,0,0-14.278-14.28Zm0,27.357a13.092,13.092,0,0,1-13.077-13.077,13.092,13.092,0,0,1,13.077-13.077A13.092,13.092,0,0,1-1722.9-379.75,13.092,13.092,0,0,1-1735.979-366.673Z" transform="translate(1755.232 394.03)" fill="#fff"/>
        <path id="Trazado_466" data-name="Trazado 466" d="M-1740.708-373.74l-3.165,9.1h1.2l.7-2.081h3.594l.7,2.081h1.2l-3.165-9.1Zm-.91,5.987,1.436-4.273,1.438,4.273Z" transform="translate(1751.791 383.104)" fill="#fff"/>
        <path id="Trazado_467" data-name="Trazado 467" d="M-1720.748-369.387a2.066,2.066,0,0,0,1.5-2.032c0-1.513-1.016-2.321-3.138-2.321h-2.782v9.1h3.074c2.334,0,3.139-1.292,3.139-2.61a2.021,2.021,0,0,0-1.8-2.136Zm-3.284-3.337h1.649c1.595,0,2.005.5,2.005,1.305,0,.9-.528,1.544-1.806,1.544h-1.846Zm1.939,7.056h-1.939v-3.178h1.729c1.5,0,2.215.5,2.215,1.6,0,.987-.622,1.581-2,1.581Z" transform="translate(1741.709 383.104)" fill="#fff"/>
        <path id="Trazado_468" data-name="Trazado 468" d="M-1705.8-369.822c-1.324-.236-2.149-.607-2.149-1.687,0-.946.712-1.424,1.767-1.424a2.416,2.416,0,0,1,2.164,1.1l.883-.634a3.215,3.215,0,0,0-3.007-1.49c-2.081,0-2.94,1.146-2.94,2.459,0,1.583,1.107,2.4,2.823,2.663s2.149.844,2.149,1.7c0,.777-.435,1.464-1.925,1.464a2.616,2.616,0,0,1-2.306-1.108l-.946.647a3.673,3.673,0,0,0,3.244,1.491c2.27,0,3.061-1.358,3.061-2.544C-1702.958-368.886-1704.037-369.52-1705.8-369.822Z" transform="translate(1733.149 383.221)" fill="#fff"/>
        <path id="Trazado_469" data-name="Trazado 469" d="M-1691.644-392.876a.9.9,0,0,0-1.275,0,.9.9,0,0,0,0,1.275,17.315,17.315,0,0,1,5.107,12.328,17.317,17.317,0,0,1-5.107,12.33.9.9,0,0,0-.265.638.9.9,0,0,0,.265.637.9.9,0,0,0,.638.265.9.9,0,0,0,.637-.263,19.1,19.1,0,0,0,5.636-13.6,19.1,19.1,0,0,0-5.636-13.6Z" transform="translate(1724.493 393.551)" fill="#fff"/>
        <path id="Trazado_470" data-name="Trazado 470" d="M-1759.211-379.271a17.323,17.323,0,0,1,5.107-12.33.9.9,0,0,0,0-1.275.9.9,0,0,0-1.275,0,19.106,19.106,0,0,0-5.635,13.6,19.1,19.1,0,0,0,5.635,13.6.9.9,0,0,0,.638.265.9.9,0,0,0,.637-.265.9.9,0,0,0,0-1.275A17.325,17.325,0,0,1-1759.211-379.271Z" transform="translate(1761.013 393.551)" fill="#fff"/>
      </g>
    </g>
    <g id="Grupo_1918" data-name="Grupo 1918" transform="translate(478.524 1832.964)">
      <text id="_130países" data-name="130países" transform="translate(20.7 30)" fill="#fff" font-size="28" font-family="SegoeUI, Segoe UI"><tspan x="0" y="0">130</tspan><tspan y="0" fill="#ccbd17" font-size="17" font-family="Segoe UI">países</tspan></text>
      <path id="Trazado_432" data-name="Trazado 432" d="M-579.8-1058.169v21.924h-14.8v-21.924l7.4-6.494Z" transform="translate(594.6 1074.191)" fill="#ccbd17"/>
      <g id="Grupo_1910" data-name="Grupo 1910" transform="translate(50.464 262.015)">
        <circle id="Elipse_4" data-name="Elipse 4" cx="1.678" cy="1.678" r="1.678" transform="translate(13.668 20.778)" fill="#fff"/>
        <rect id="Rectángulo_933" data-name="Rectángulo 933" width="2.877" height="12.585" rx="0.76" transform="translate(13.906 6.396)" fill="#fff"/>
        <path id="Trazado_447" data-name="Trazado 447" d="M-560.652-352.085h-10a1.846,1.846,0,0,1-1.615-.933,1.848,1.848,0,0,1,0-1.865l5.051-8.749a.719.719,0,0,0-.263-.982.718.718,0,0,0-.546-.073.719.719,0,0,0-.437.336l-5.051,8.749a3.272,3.272,0,0,0,0,3.3,3.27,3.27,0,0,0,2.86,1.651h10a.719.719,0,0,0,.719-.719.719.719,0,0,0-.717-.719Z" transform="translate(573.958 378.097)" fill="#fff"/>
        <path id="Trazado_448" data-name="Trazado 448" d="M-515.113-355.629l-5.06-8.764a.719.719,0,0,0-.982-.263.719.719,0,0,0-.263.982l5.06,8.764a1.846,1.846,0,0,1,0,1.865,1.846,1.846,0,0,1-1.615.933h-9.988a.719.719,0,0,0-.719.719.719.719,0,0,0,.719.719h10a3.268,3.268,0,0,0,2.86-1.651A3.271,3.271,0,0,0-515.113-355.629Z" transform="translate(545.354 378.124)" fill="#fff"/>
        <path id="Trazado_449" data-name="Trazado 449" d="M-553.38-389.886a.715.715,0,0,0,.359.1.719.719,0,0,0,.624-.359l4.945-8.566a1.847,1.847,0,0,1,1.616-.933,1.847,1.847,0,0,1,1.615.933l4.935,8.55a.719.719,0,0,0,.982.263.719.719,0,0,0,.263-.982l-4.935-8.55a3.27,3.27,0,0,0-2.862-1.651,3.27,3.27,0,0,0-2.86,1.651l-4.945,8.565A.719.719,0,0,0-553.38-389.886Z" transform="translate(561.182 401.085)" fill="#fff"/>
      </g>
      <path id="Trazado_460" data-name="Trazado 460" d="M-543.5-893.783a1.674,1.674,0,0,0-.613-2.285l-6.71-3.874a1.664,1.664,0,0,0-.836-.225,1.672,1.672,0,0,0-1.451.836l-2.684,4.648a11.437,11.437,0,0,0-2.822-.354,11.42,11.42,0,0,0-2.837.356l-2.684-4.649a1.672,1.672,0,0,0-1.451-.836,1.662,1.662,0,0,0-.836.225l-6.7,3.874a1.674,1.674,0,0,0-.613,2.287l6.082,10.531v2.081l-2.27,2.107a.835.835,0,0,0-.267.613v3.77a.838.838,0,0,0,.838.836h3.059l1.01,1.784a3.388,3.388,0,0,0,2.947,1.718h7.446a3.387,3.387,0,0,0,2.947-1.717l1.01-1.784h3.059a.836.836,0,0,0,.592-.244.836.836,0,0,0,.246-.592v-3.77a.838.838,0,0,0-.267-.613l-2.27-2.107v-2.092Zm-8.363-4.829a.236.236,0,0,1,.206-.117.23.23,0,0,1,.115.032l6.71,3.874a.236.236,0,0,1,.087.321l-1.481,2.565-7.118-4.109Zm-6.751,5.015a10.034,10.034,0,0,1,2.459.308l.136.036-1.05,1.892a.483.483,0,0,0-.055.168,8.131,8.131,0,0,0-1.441-.13,8.15,8.15,0,0,0-1.606.159.452.452,0,0,0-.017-.045l-1.055-2.039.148-.038A10.022,10.022,0,0,1-558.612-893.6Zm.057,3.231a7.188,7.188,0,0,1,7.188,7.188,7.188,7.188,0,0,1-7.188,7.188,7.188,7.188,0,0,1-7.188-7.188,7.189,7.189,0,0,1,7.19-7.187Zm-13.958-4.315a.232.232,0,0,1,.11-.144l6.71-3.874a.23.23,0,0,1,.115-.032.237.237,0,0,1,.206.117l1.481,2.565-7.118,4.109-1.481-2.565a.233.233,0,0,1-.021-.174Zm1.984,3.575,7.116-4.109.724,1.254.066.115,1.513,2.932a8.168,8.168,0,0,0-5.514,6.581Zm22.055,12.912v2.907h-3.3l-.414.728-1.01,1.784a1.952,1.952,0,0,1-1.7.988h-7.445a1.952,1.952,0,0,1-1.7-.987l-1.01-1.784-.412-.728h-3.3v-2.907l2.081-1.93.424-.394a8.158,8.158,0,0,0,7.7,5.486,8.161,8.161,0,0,0,7.671-5.4l.337.312Zm-2.043-6.309a8.172,8.172,0,0,0-5.664-6.469l2.051-3.693a.511.511,0,0,0,.036-.083l.271-.467,7.117,4.109Z" transform="translate(624.426 978.515)" fill="#ccbd17"/>
      <g id="Grupo_1913" data-name="Grupo 1913" transform="translate(55.378 138.744)">
        <path id="Trazado_461" data-name="Trazado 461" d="M-539.312-703.484h-9.108a.481.481,0,0,0-.481.48.481.481,0,0,0,.481.481h9.108a.478.478,0,0,0,.341-.14.479.479,0,0,0,.14-.34.48.48,0,0,0-.48-.48Z" transform="translate(553.212 715.47)" fill="#fff"/>
        <path id="Trazado_462" data-name="Trazado 462" d="M-536.3-729.534a5.566,5.566,0,0,0-1.008-3.2L-539.586-736l-1.572,1.1,2.281,3.265a3.658,3.658,0,0,1,.662,2.1v5.588h.84V-711.7a1.3,1.3,0,0,1-1.3,1.3,1.3,1.3,0,0,1-1.3-1.3v-7.536a1.958,1.958,0,0,0-1.956-1.956h-.961v-11.267a3.594,3.594,0,0,0-3.594-3.594h-9.589a3.594,3.594,0,0,0-3.594,3.594v25.168h-.959v1.918h18.7v-1.918h-.959v-12.945h.961a1,1,0,0,1,1,1v7.536a2.258,2.258,0,0,0,2.257,2.256,2.258,2.258,0,0,0,2.257-2.256v-12.248h.119Zm-21.933,22.248v-25.168a2.16,2.16,0,0,1,2.156-2.156h9.589a2.16,2.16,0,0,1,2.158,2.156v25.168Z" transform="translate(560.623 736.051)" fill="#fff"/>
      </g>
      <g id="Grupo_1914" data-name="Grupo 1914" transform="translate(49.775 206.433)">
        <path id="Trazado_463" data-name="Trazado 463" d="M-547.587-548.7a2.637,2.637,0,0,0-1.489.46l-5.471,3.744a.718.718,0,0,1-.4.127.719.719,0,0,1-.647-.4l-1.19-2.444a2.637,2.637,0,0,0-2.37-1.481h-9.632l-2.378-2.752a1.916,1.916,0,0,0-1.451-.664h-1.309a1.92,1.92,0,0,0-1.918,1.918v4.392a1.92,1.92,0,0,0,1.918,1.918h4.2v5.136a3.594,3.594,0,0,0,3.594,3.594h8.955a3.594,3.594,0,0,0,3.016-1.636l6.053-9.333a1.438,1.438,0,0,1,1.207-.654h1.736V-548.7Zm-22.149,3.373h-4.2a.48.48,0,0,1-.479-.479V-550.2a.481.481,0,0,1,.479-.481h1.309a.481.481,0,0,1,.363.167l2.523,2.919Zm14.359,7.756a2.15,2.15,0,0,1-1.808.982h-8.955a2.16,2.16,0,0,1-2.159-2.158v-8.513h9.139a1.207,1.207,0,0,1,1.078.673l1.19,2.444a2.143,2.143,0,0,0,1.941,1.212,2.146,2.146,0,0,0,1.216-.378l3.744-2.561Z" transform="translate(575.846 552.119)" fill="#fff"/>
        <path id="Trazado_464" data-name="Trazado 464" d="M-499.382-530.775l-1.324,2.279a1.549,1.549,0,0,0-.238.827,1.559,1.559,0,0,0,1.557,1.559,1.559,1.559,0,0,0,1.559-1.559,1.548,1.548,0,0,0-.238-.827Z" transform="translate(528.502 538.629)" fill="#fff"/>
      </g>
    </g>
  </g>
</svg>
