<svg xmlns="http://www.w3.org/2000/svg" width="453.646" height="350.874" viewBox="0 0 453.646 350.874">
  <g id="reloj1" transform="translate(-82.89 -1246.889)">
    <g id="Grupo_1976" data-name="Grupo 1976" transform="translate(353.998 1556.762)">
      <text id="ODO" transform="translate(0 31.44)" fill="#ccbd17" font-size="15" font-family="Segoe UI"><tspan x="0" y="0">ODO</tspan></text>
      <text id="_68_sustracción" data-name="68%sustracción" transform="translate(44.537 33)" fill="#ccbd17" font-size="31" font-family="SegoeUI, Segoe UI"><tspan x="0" y="0">68%</tspan><tspan y="0" fill="#fff" font-size="16" font-family="Segoe UI">sustracción</tspan></text>
    </g>
    <g id="Grupo_1962" data-name="Grupo 1962" transform="translate(146.319 1257.566)">
      <text id="_" data-name="%" transform="translate(224.306 139.687)" fill="#ccbd17" font-size="27" font-family="Segoe UI"><tspan x="0" y="0">%</tspan></text>
      <text id="_80" data-name="80" transform="translate(114.444 196.615)" fill="#fff" font-size="116" font-family="'DIN \32 014'" font-weight="200" letter-spacing="-0.04em"><tspan x="0" y="0">80</tspan></text>
      <g id="Grupo_1974" data-name="Grupo 1974" transform="matrix(0.848, -0.53, 0.53, 0.848, 0, 91.655)">
        <path id="Trazado_438" data-name="Trazado 438" d="M172.959,17.7C153.785,6.628,129.4,0,102.862,0,56.7,0,17.066,20.053,0,48.668" transform="translate(0 0)" fill="none" stroke="rgba(204,189,23,0.41)" stroke-width="15"/>
      </g>
      <path id="Trazado_5587" data-name="Trazado 5587" d="M460.828,388.533c-80.456,0-145.678-61.6-145.678-137.578s65.222-137.578,145.678-137.578a150.361,150.361,0,0,1,92.724,31.466l-26.741,30.573" transform="translate(-284.56 -91.149)" fill="none" stroke="#fff" stroke-width="8"/>
      <path id="Trazado_5590" data-name="Trazado 5590" d="M239.655,228.284l3.454,3.056A139.066,139.066,0,1,0,40.733,237.4l3.255-3.255" transform="matrix(0.035, 0.999, -0.999, 0.035, 307.05, 12.951)" fill="none" stroke="#fff" stroke-width="2"/>
    </g>
    <g id="Grupo_1975" data-name="Grupo 1975" transform="translate(82.894 1432.887)">
      <text id="_13000robos_" data-name="13000robos  " transform="translate(40.109 152.738)" fill="#fff" font-size="34" font-family="SegoeUI, Segoe UI"><tspan x="0" y="0">13000</tspan><tspan y="0" fill="#ccbd17" font-size="17" font-family="Segoe UI">robos</tspan></text>
      <g id="Grupo_1961" data-name="Grupo 1961" transform="translate(0 124.217)">
        <path id="Trazado_5582" data-name="Trazado 5582" d="M93.124,951.6H80.39a.792.792,0,1,0,0,1.582H93.124a.792.792,0,1,0,0-1.582Z" transform="translate(-73.688 -935.927)" fill="#ccbd17"/>
        <path id="Trazado_5583" data-name="Trazado 5583" d="M98.142,916.322l-3.2-4.309-2.2,1.447,3.188,4.311a4.646,4.646,0,0,1,.926,2.778v7.378h1.005V944.1a1.649,1.649,0,0,1-3.293,0v-9.946a2.828,2.828,0,0,0-2.9-2.741H90.329V916.693a4.894,4.894,0,0,0-5.027-4.747h-13.4a4.894,4.894,0,0,0-5.027,4.747v33.231h-1.34v2.532H91.677v-2.532h-1.34V932.992H91.68a1.2,1.2,0,0,1,1.228,1.159V944.1a3.327,3.327,0,0,0,6.644,0V920.545a7.071,7.071,0,0,0-1.41-4.223Zm-28.584.362a2.286,2.286,0,0,1,2.351-2.215h13.4a2.286,2.286,0,0,1,2.351,2.215v33.231H69.56Z" transform="translate(-65.538 -911.944)" fill="#ccbd17"/>
      </g>
      <text id="robos_" data-name="robos  " transform="translate(286.051 18)" fill="#ccbd17" font-size="17" font-family="Segoe UI"><tspan x="0" y="0">robos</tspan></text>
    </g>
    <g id="Grupo_1978" data-name="Grupo 1978" transform="translate(82.89 1246.889)">
      <g id="Grupo_1909" data-name="Grupo 1909" transform="translate(0 0)">
        <path id="Trazado_443" data-name="Trazado 443" d="M-1723.758-877.544h-5.082v15.936h1.989v-6.074h3.094c3.7,0,5.8-1.848,5.8-4.919S-1720.087-877.544-1723.758-877.544Zm0,8.06h-3.094v-6.259h3.094c2.7,0,3.81,1.156,3.81,3.141s-1.116,3.118-3.81,3.118Z" transform="translate(1743.041 883.566)" fill="#fff"/>
        <path id="Trazado_444" data-name="Trazado 444" d="M-1736.607-891.194a13.666,13.666,0,0,0-13.652,13.65,13.667,13.667,0,0,0,13.652,13.652,13.666,13.666,0,0,0,13.65-13.652,13.666,13.666,0,0,0-13.65-13.65Zm0,26.151a12.516,12.516,0,0,1-12.5-12.5,12.514,12.514,0,0,1,12.5-12.5,12.516,12.516,0,0,1,12.5,12.5,12.516,12.516,0,0,1-12.5,12.5Z" transform="translate(1755.013 891.194)" fill="#fff"/>
        <path id="Trazado_445" data-name="Trazado 445" d="M-1691.712-890.052a.862.862,0,0,0-1.219,0,.863.863,0,0,0,0,1.219,16.555,16.555,0,0,1,4.883,11.785,16.558,16.558,0,0,1-4.883,11.787.861.861,0,0,0-.253.609.86.86,0,0,0,.253.609.861.861,0,0,0,.61.253.861.861,0,0,0,.609-.253,18.263,18.263,0,0,0,5.387-13.006A18.263,18.263,0,0,0-1691.712-890.052Z" transform="translate(1723.115 890.696)" fill="#fff"/>
        <path id="Trazado_446" data-name="Trazado 446" d="M-1759.29-877.047a16.558,16.558,0,0,1,4.883-11.786.863.863,0,0,0,0-1.219.863.863,0,0,0-1.219,0,18.266,18.266,0,0,0-5.387,13.006,18.265,18.265,0,0,0,5.387,13.006.857.857,0,0,0,.609.253.86.86,0,0,0,.609-.253.863.863,0,0,0,0-1.219A16.562,16.562,0,0,1-1759.29-877.047Z" transform="translate(1761.013 890.697)" fill="#fff"/>
      </g>
      <g id="Grupo_1911" data-name="Grupo 1911" transform="translate(0.331 142.357)">
        <path id="Trazado_450" data-name="Trazado 450" d="M-1724.864-528.647v-14.134h4.85v-1.808H-1731.7v1.808h4.85v14.134Z" transform="translate(1744.302 555.157)" fill="#fff"/>
        <path id="Trazado_451" data-name="Trazado 451" d="M-1700.308-563.9a17.684,17.684,0,0,0-3.9-2.868,1.873,1.873,0,0,0-.475-1.152,1.888,1.888,0,0,0-2.666-.15,1.887,1.887,0,0,0-.627,1.3,1.887,1.887,0,0,0,.478,1.364,1.884,1.884,0,0,0,2.584.215,15.94,15.94,0,0,1,3.409,2.532,15.857,15.857,0,0,1,4.858,11.476,16.02,16.02,0,0,1-.44,3.731.862.862,0,0,0,.638,1.04.877.877,0,0,0,.2.024.864.864,0,0,0,.839-.662,17.769,17.769,0,0,0,.486-4.132,17.563,17.563,0,0,0-5.38-12.719Z" transform="translate(1731.055 568.552)" fill="#fff"/>
        <path id="Trazado_452" data-name="Trazado 452" d="M-1753.318-561.572a15.822,15.822,0,0,1,6.225-3.978.861.861,0,0,0,.493-.438.861.861,0,0,0,.038-.659.861.861,0,0,0-1.1-.532,17.5,17.5,0,0,0-6.9,4.4,17.613,17.613,0,0,0-4.993,12.323q0,.66.051,1.318c-.043.032-.087.067-.128.1a1.888,1.888,0,0,0-.148,2.666,1.882,1.882,0,0,0,1.49.628h.042a.865.865,0,0,0,.2-.024l.078-.022a1.874,1.874,0,0,0,.859-.438,1.888,1.888,0,0,0,.15-2.666,1.883,1.883,0,0,0-.83-.542c-.022-.344-.035-.689-.035-1.033a15.9,15.9,0,0,1,4.507-11.109Z" transform="translate(1760.257 567.805)" fill="#fff"/>
        <path id="Trazado_453" data-name="Trazado 453" d="M-1722.629-504.995a1.887,1.887,0,0,0-.578,1.841,15.838,15.838,0,0,1-9.585,3.192,16.018,16.018,0,0,1-9.873-3.414.863.863,0,0,0-1.21.143.863.863,0,0,0,.143,1.212,17.748,17.748,0,0,0,10.941,3.785,17.542,17.542,0,0,0,10.717-3.6,1.886,1.886,0,0,0,1.971-.338,1.888,1.888,0,0,0,.148-2.666,1.889,1.889,0,0,0-1.306-.631,1.888,1.888,0,0,0-1.368.481Z" transform="translate(1751.225 533.306)" fill="#fff"/>
      </g>
      <g id="Grupo_1912" data-name="Grupo 1912" transform="translate(0.004 72.105)">
        <path id="Trazado_454" data-name="Trazado 454" d="M-1743.522-727.749h-2.8a14.675,14.675,0,0,0-14.693,14.648h0a14.675,14.675,0,0,0,14.693,14.657h2.8a33.906,33.906,0,0,0,0-29.314Zm-1.107,27.589h-1.689a12.966,12.966,0,0,1-12.968-12.936,12.964,12.964,0,0,1,12.968-12.93h1.689a32.387,32.387,0,0,1,2.712,12.932,32.4,32.4,0,0,1-2.708,12.928Z" transform="translate(1761.011 727.758)" fill="#ccbd17"/>
        <path id="Trazado_455" data-name="Trazado 455" d="M-1709.753-725.313h13.274a.575.575,0,0,0,.575-.575.575.575,0,0,0-.575-.575h-13.274a.575.575,0,0,0-.575.575A.575.575,0,0,0-1709.753-725.313Z" transform="translate(1732.692 727.042)" fill="#ccbd17"/>
        <path id="Trazado_456" data-name="Trazado 456" d="M-1696.479-665.211h-13.274a.575.575,0,0,0-.575.575.575.575,0,0,0,.575.575h13.274a.575.575,0,0,0,.575-.575A.575.575,0,0,0-1696.479-665.211Z" transform="translate(1732.692 692.815)" fill="#ccbd17"/>
        <path id="Trazado_457" data-name="Trazado 457" d="M-1694.3-680.53h-11.554a.575.575,0,0,0-.575.575.575.575,0,0,0,.575.575h11.554a.575.575,0,0,0,.575-.575A.575.575,0,0,0-1694.3-680.53Z" transform="translate(1730.515 701.375)" fill="#ccbd17"/>
        <path id="Trazado_458" data-name="Trazado 458" d="M-1693.76-695.837h-11.123a.575.575,0,0,0-.575.575.575.575,0,0,0,.575.575h11.124a.575.575,0,0,0,.575-.575.575.575,0,0,0-.575-.575Z" transform="translate(1729.967 709.928)" fill="#ccbd17"/>
        <path id="Trazado_459" data-name="Trazado 459" d="M-1694.3-711.15h-11.554a.575.575,0,0,0-.575.575.575.575,0,0,0,.575.575h11.554a.575.575,0,0,0,.575-.575.576.576,0,0,0-.575-.575Z" transform="translate(1730.515 718.485)" fill="#ccbd17"/>
      </g>
      <g id="Grupo_1915" data-name="Grupo 1915" transform="translate(0 219.359)">
        <path id="Trazado_465" data-name="Trazado 465" d="M-1736.607-394.03a13.666,13.666,0,0,0-13.652,13.652,13.666,13.666,0,0,0,13.652,13.652,13.666,13.666,0,0,0,13.65-13.652A13.666,13.666,0,0,0-1736.607-394.03Zm0,26.153a12.516,12.516,0,0,1-12.5-12.5,12.516,12.516,0,0,1,12.5-12.5,12.516,12.516,0,0,1,12.5,12.5,12.516,12.516,0,0,1-12.5,12.5Z" transform="translate(1755.013 394.03)" fill="#fff"/>
        <path id="Trazado_466" data-name="Trazado 466" d="M-1740.848-373.74l-3.025,8.7h1.147l.669-1.989h3.436l.667,1.989h1.147l-3.025-8.7Zm-.87,5.724,1.373-4.085,1.375,4.085Z" transform="translate(1751.443 382.692)" fill="#fff"/>
        <path id="Trazado_467" data-name="Trazado 467" d="M-1720.942-369.579a1.975,1.975,0,0,0,1.438-1.942c0-1.447-.971-2.219-3-2.219h-2.66v8.7h2.939c2.231,0,3-1.235,3-2.5A1.931,1.931,0,0,0-1720.942-369.579Zm-3.139-3.19h1.577c1.525,0,1.917.479,1.917,1.248,0,.857-.5,1.476-1.727,1.476h-1.765Zm1.854,6.745h-1.854v-3.038h1.653c1.438,0,2.118.479,2.118,1.526,0,.944-.6,1.512-1.915,1.512Z" transform="translate(1740.981 382.692)" fill="#fff"/>
        <path id="Trazado_468" data-name="Trazado 468" d="M-1705.949-370c-1.266-.226-2.054-.581-2.054-1.613,0-.9.68-1.362,1.689-1.362a2.309,2.309,0,0,1,2.069,1.047l.845-.606a3.074,3.074,0,0,0-2.875-1.425c-1.989,0-2.81,1.1-2.81,2.351,0,1.514,1.058,2.295,2.7,2.546s2.054.807,2.054,1.628c0,.743-.416,1.4-1.841,1.4a2.5,2.5,0,0,1-2.2-1.06l-.9.618a3.511,3.511,0,0,0,3.1,1.425c2.17,0,2.926-1.3,2.926-2.432C-1703.237-369.11-1704.268-369.716-1705.949-370Z" transform="translate(1732.099 382.814)" fill="#fff"/>
        <path id="Trazado_469" data-name="Trazado 469" d="M-1691.712-392.887a.863.863,0,0,0-1.219,0,.863.863,0,0,0,0,1.219,16.554,16.554,0,0,1,4.882,11.785,16.555,16.555,0,0,1-4.882,11.787.861.861,0,0,0-.253.609.861.861,0,0,0,.253.609.858.858,0,0,0,.61.253.861.861,0,0,0,.609-.251,18.264,18.264,0,0,0,5.388-13.006,18.264,18.264,0,0,0-5.388-13.006Z" transform="translate(1723.115 393.533)" fill="#fff"/>
        <path id="Trazado_470" data-name="Trazado 470" d="M-1759.29-379.881a16.558,16.558,0,0,1,4.883-11.787.863.863,0,0,0,0-1.219.863.863,0,0,0-1.219,0,18.266,18.266,0,0,0-5.387,13.006,18.265,18.265,0,0,0,5.387,13.006.857.857,0,0,0,.609.253.857.857,0,0,0,.609-.253.863.863,0,0,0,0-1.219A16.559,16.559,0,0,1-1759.29-379.881Z" transform="translate(1761.013 393.533)" fill="#fff"/>
      </g>
    </g>
    <g id="Grupo_1979" data-name="Grupo 1979" transform="translate(469.579 1247.09)">
      <text id="_1000" data-name="1000" transform="translate(18.592 15)" fill="#fff" font-size="14" font-family="Segoe UI"><tspan x="0" y="0">1000</tspan></text>
      <path id="Trazado_432" data-name="Trazado 432" d="M-581.431-1056.988v25.922H-594.6v-25.922l6.583-7.678Z" transform="translate(594.6 1067.228)" fill="#ccbd17"/>
      <g id="Grupo_1910" data-name="Grupo 1910" transform="translate(27.154 237.219)">
        <circle id="Elipse_4" data-name="Elipse 4" cx="1.604" cy="1.604" r="1.604" transform="translate(13.067 19.864)" fill="#fff"/>
        <rect id="Rectángulo_933" data-name="Rectángulo 933" width="2.751" height="12.031" rx="0.76" transform="translate(13.294 6.114)" fill="#fff"/>
        <path id="Trazado_447" data-name="Trazado 447" d="M-561.237-352.64h-9.557a1.765,1.765,0,0,1-1.544-.892,1.767,1.767,0,0,1,0-1.783l4.828-8.364a.687.687,0,0,0-.251-.939.687.687,0,0,0-.522-.07.687.687,0,0,0-.418.321L-573.531-356a3.128,3.128,0,0,0,0,3.157,3.127,3.127,0,0,0,2.734,1.579h9.557a.687.687,0,0,0,.687-.687.687.687,0,0,0-.685-.687Z" transform="translate(573.958 377.508)" fill="#fff"/>
        <path id="Trazado_448" data-name="Trazado 448" d="M-515.71-356.03l-4.837-8.378a.687.687,0,0,0-.939-.251.687.687,0,0,0-.251.939l4.837,8.378a1.765,1.765,0,0,1,0,1.783,1.765,1.765,0,0,1-1.544.891h-9.548a.687.687,0,0,0-.687.687.687.687,0,0,0,.687.687h9.557a3.125,3.125,0,0,0,2.734-1.579A3.127,3.127,0,0,0-515.71-356.03Z" transform="translate(544.62 377.536)" fill="#fff"/>
        <path id="Trazado_449" data-name="Trazado 449" d="M-553.4-390.379a.684.684,0,0,0,.344.092.687.687,0,0,0,.6-.343l4.727-8.189a1.766,1.766,0,0,1,1.544-.892,1.765,1.765,0,0,1,1.544.892l4.718,8.174a.687.687,0,0,0,.939.251.687.687,0,0,0,.251-.938l-4.718-8.174a3.126,3.126,0,0,0-2.736-1.579,3.127,3.127,0,0,0-2.734,1.579l-4.727,8.189A.687.687,0,0,0-553.4-390.379Z" transform="translate(560.855 401.085)" fill="#fff"/>
      </g>
      <path id="Trazado_460" data-name="Trazado 460" d="M-544.839-894.064a1.6,1.6,0,0,0-.586-2.185l-6.414-3.7a1.59,1.59,0,0,0-.8-.215,1.6,1.6,0,0,0-1.387.8l-2.566,4.443a10.93,10.93,0,0,0-2.7-.338,10.92,10.92,0,0,0-2.712.34l-2.566-4.445a1.6,1.6,0,0,0-1.387-.8,1.59,1.59,0,0,0-.8.215l-6.4,3.7a1.6,1.6,0,0,0-.586,2.186l5.814,10.067v1.989l-2.17,2.015a.8.8,0,0,0-.255.586v3.6a.8.8,0,0,0,.8.8h2.924l.966,1.705a3.239,3.239,0,0,0,2.817,1.642h7.118a3.238,3.238,0,0,0,2.817-1.642l.966-1.706h2.924a.8.8,0,0,0,.566-.234.8.8,0,0,0,.235-.566v-3.6a.8.8,0,0,0-.255-.586l-2.17-2.015v-2Zm-7.995-4.617a.226.226,0,0,1,.2-.112.221.221,0,0,1,.11.031l6.414,3.7a.226.226,0,0,1,.083.307l-1.416,2.452-6.805-3.928Zm-6.454,4.794a9.587,9.587,0,0,1,2.351.295l.13.034-1,1.808a.465.465,0,0,0-.052.161,7.781,7.781,0,0,0-1.378-.125,7.817,7.817,0,0,0-1.535.152.4.4,0,0,0-.016-.043l-1.009-1.949.141-.036a9.584,9.584,0,0,1,2.372-.3Zm.054,3.089a6.872,6.872,0,0,1,6.872,6.872,6.872,6.872,0,0,1-6.872,6.872,6.872,6.872,0,0,1-6.872-6.872,6.872,6.872,0,0,1,6.874-6.87Zm-13.344-4.125a.222.222,0,0,1,.1-.137l6.414-3.7a.222.222,0,0,1,.11-.031.226.226,0,0,1,.2.112l1.416,2.452-6.805,3.928-1.416-2.452a.223.223,0,0,1-.02-.166Zm1.9,3.418,6.8-3.928.693,1.2.063.11,1.447,2.8a7.808,7.808,0,0,0-5.271,6.291ZM-549.6-879.16v2.779h-3.152l-.4.7-.966,1.705a1.866,1.866,0,0,1-1.627.944h-7.118a1.866,1.866,0,0,1-1.628-.944l-.965-1.705-.394-.7H-569v-2.779l1.989-1.845.405-.376a7.8,7.8,0,0,0,7.358,5.244,7.8,7.8,0,0,0,7.333-5.165l.322.3Zm-1.953-6.031a7.812,7.812,0,0,0-5.414-6.185l1.96-3.53a.486.486,0,0,0,.034-.08l.259-.447,6.8,3.928Z" transform="translate(601.116 961.801)" fill="#ccbd17"/>
      <g id="Grupo_1913" data-name="Grupo 1913" transform="translate(31.851 119.372)">
        <path id="Trazado_461" data-name="Trazado 461" d="M-539.734-703.484h-8.707a.459.459,0,0,0-.459.459.459.459,0,0,0,.459.459h8.707a.457.457,0,0,0,.326-.134.458.458,0,0,0,.134-.325.459.459,0,0,0-.459-.459Z" transform="translate(553.023 714.942)" fill="#fff"/>
        <path id="Trazado_462" data-name="Trazado 462" d="M-537.367-729.821a5.32,5.32,0,0,0-.964-3.062L-540.512-736l-1.5,1.051,2.181,3.121a3.5,3.5,0,0,1,.633,2.011v5.342h.8v11.709a1.242,1.242,0,0,1-1.24,1.241,1.242,1.242,0,0,1-1.241-1.241v-7.2a1.872,1.872,0,0,0-1.87-1.87h-.919v-10.771a3.436,3.436,0,0,0-3.436-3.436h-9.167a3.436,3.436,0,0,0-3.436,3.436v24.061h-.917v1.834h17.874v-1.834h-.917v-12.375h.919a.955.955,0,0,1,.953.953v7.2a2.159,2.159,0,0,0,2.157,2.157,2.159,2.159,0,0,0,2.157-2.157v-11.709h.114Zm-20.968,21.269v-24.061a2.065,2.065,0,0,1,2.062-2.062h9.167a2.065,2.065,0,0,1,2.063,2.062v24.061Z" transform="translate(560.623 736.051)" fill="#fff"/>
      </g>
      <g id="Grupo_1914" data-name="Grupo 1914" transform="translate(26.495 184.083)">
        <path id="Trazado_463" data-name="Trazado 463" d="M-548.83-548.853a2.522,2.522,0,0,0-1.423.439l-5.23,3.579a.686.686,0,0,1-.387.121.687.687,0,0,1-.618-.387l-1.138-2.336a2.521,2.521,0,0,0-2.266-1.416H-569.1l-2.273-2.631a1.832,1.832,0,0,0-1.387-.635h-1.251a1.836,1.836,0,0,0-1.834,1.834v4.2a1.835,1.835,0,0,0,1.834,1.834H-570v4.91a3.436,3.436,0,0,0,3.436,3.436H-558a3.436,3.436,0,0,0,2.883-1.564l5.787-8.923a1.375,1.375,0,0,1,1.154-.626h1.66v-1.834ZM-570-545.628h-4.011a.459.459,0,0,1-.458-.458v-4.2a.459.459,0,0,1,.458-.459h1.251a.46.46,0,0,1,.347.159L-570-547.8Zm13.728,7.414a2.056,2.056,0,0,1-1.729.939h-8.561a2.065,2.065,0,0,1-2.064-2.063v-8.138h8.736a1.154,1.154,0,0,1,1.031.644l1.138,2.336a2.048,2.048,0,0,0,1.855,1.159,2.051,2.051,0,0,0,1.163-.362l3.579-2.449Z" transform="translate(575.846 552.119)" fill="#fff"/>
        <path id="Trazado_464" data-name="Trazado 464" d="M-499.451-530.775l-1.266,2.179a1.481,1.481,0,0,0-.228.79,1.49,1.49,0,0,0,1.488,1.49,1.49,1.49,0,0,0,1.49-1.49,1.479,1.479,0,0,0-.228-.79Z" transform="translate(527.29 538.283)" fill="#fff"/>
      </g>
    </g>
  </g>
</svg>
