<svg xmlns="http://www.w3.org/2000/svg" width="53.297" height="53.297" viewBox="0 0 53.297 53.297">
  <path id="Trazado_32" data-name="Trazado 32" d="M18.449,3.2a2.05,2.05,0,0,0,0,4.1H49.2V52.4H18.449a2.05,2.05,0,0,0,0,4.1H49.2a4.1,4.1,0,0,0,4.1-4.1V7.3a4.1,4.1,0,0,0-4.1-4.1Zm8.622,15.976a2.047,2.047,0,0,0-2.9,2.9L29.9,27.8H2.05a2.05,2.05,0,1,0,0,4.1H29.9l-5.727,5.727a2.047,2.047,0,0,0,2.9,2.9L36.3,31.3a2.034,2.034,0,0,0,0-2.9Z" transform="translate(0 -3.2)" fill="#fff" fill-rule="evenodd"/>
</svg>
