<svg id="twitter" xmlns="http://www.w3.org/2000/svg" width="33.342" height="33.335" viewBox="0 0 33.342 33.335">
  <path id="Trazado_107" data-name="Trazado 107" d="M33.332,9.2a13.359,13.359,0,0,1-3.924,1.076,6.888,6.888,0,0,0,3.007-3.785A13.81,13.81,0,0,1,28.075,8.16,6.84,6.84,0,0,0,16.421,14.4a19.441,19.441,0,0,1-14.1-7.153,6.86,6.86,0,0,0,2.111,9.132,6.882,6.882,0,0,1-3.1-.854V15.6a6.835,6.835,0,0,0,5.486,6.709,7,7,0,0,1-1.806.243,7.193,7.193,0,0,1-1.285-.125,6.845,6.845,0,0,0,6.382,4.75,13.678,13.678,0,0,1-8.494,2.931,14.109,14.109,0,0,1-1.632-.1,19.359,19.359,0,0,0,10.487,3.077c12.577,0,19.459-10.424,19.459-19.466,0-.3-.007-.59-.014-.882a13.87,13.87,0,0,0,3.41-3.535Z" transform="translate(0.01 -1.833)" fill="#fff"/>
  <path id="Trazado_108" data-name="Trazado 108" d="M0,0H33.335V33.335H0Z" transform="translate(0.007)" fill="none"/>
</svg>
