<svg id="wifi" xmlns="http://www.w3.org/2000/svg" width="69.83" height="69.83" viewBox="0 0 69.83 69.83">
  <path id="Trazado_19" data-name="Trazado 19" d="M40.515,30a18.527,18.527,0,0,0-24.644,0,2.817,2.817,0,0,0-.931,2.735,2.851,2.851,0,0,0,4.728,1.542,12.815,12.815,0,0,1,17.036,0A2.864,2.864,0,1,0,40.515,30Z" transform="translate(6.766 11.508)" fill="#eedd1b"/>
  <path id="Trazado_20" data-name="Trazado 20" d="M30.8,17.22A30.194,30.194,0,0,0,10.086,25.4a2.865,2.865,0,0,0,1.106,4.874,2.826,2.826,0,0,0,2.808-.7,24.608,24.608,0,0,1,33.591,0,2.858,2.858,0,0,0,4.786-1.411A2.856,2.856,0,0,0,51.5,25.4,30.185,30.185,0,0,0,30.8,17.22Z" transform="translate(4.157 7.831)" fill="#fff"/>
  <path id="Trazado_21" data-name="Trazado 21" d="M61.164,19.836a42.121,42.121,0,0,0-56.111,0A2.865,2.865,0,1,0,8.879,24.1a36.4,36.4,0,0,1,48.474,0A2.858,2.858,0,0,0,61.4,23.88a2.889,2.889,0,0,0-.233-4.059Z" transform="translate(1.843 4.153)" fill="#fff"/>
  <path id="Trazado_22" data-name="Trazado 22" d="M29.759,38.244a4.364,4.364,0,1,1-4.364-4.364A4.368,4.368,0,0,1,29.759,38.244Z" transform="translate(9.564 15.408)" fill="#eedd1b"/>
  <path id="Trazado_23" data-name="Trazado 23" d="M0,0H69.83V69.83H0Z" fill="none"/>
</svg>
