<svg id="youtube" xmlns="http://www.w3.org/2000/svg" width="44.08" height="44.08" viewBox="0 0 44.08 44.08">
  <path id="Trazado_110" data-name="Trazado 110" d="M39.9,12.592c.836,3.269.836,10.1.836,10.1s0,6.832-.836,10.1a5.191,5.191,0,0,1-3.563,3.719c-3.141.872-13.968.872-13.968.872s-10.827,0-13.968-.872a5.175,5.175,0,0,1-3.563-3.719C4,29.526,4,22.693,4,22.693s0-6.832.836-10.1A5.191,5.191,0,0,1,8.4,8.872C11.54,8,22.367,8,22.367,8s10.827,0,13.968.872A5.175,5.175,0,0,1,39.9,12.592Zm-21.2,16.53,11.02-6.428-11.02-6.428Z" transform="translate(-0.327 -0.653)" fill="#fff"/>
  <path id="Trazado_111" data-name="Trazado 111" d="M0,0H44.08V44.08H0Z" fill="none"/>
</svg>
